<?xml version="1.0" standalone="no"?>
<!DOCTYPE svg PUBLIC "-//W3C//DTD SVG 1.1//EN" "http://www.w3.org/Graphics/SVG/1.1/DTD/svg11.dtd" >
<svg xmlns="http://www.w3.org/2000/svg" xmlns:xlink="http://www.w3.org/1999/xlink" version="1.1">
<metadata></metadata>
<defs>
<font id="webfontregular" horiz-adv-x="1024" >
<font-face units-per-em="2048" ascent="1638" descent="-410" />
<missing-glyph horiz-adv-x="368" />
<glyph unicode="&#xfb01;" horiz-adv-x="1056" d="M6 731v172h133v41q0 172 105.5 271.5t283.5 99.5q145 0 229.5 -57.5t127.5 -167.5l-187 -62q-16 45 -54 76t-101 31q-72 0 -116 -47.5t-44 -135.5v-49h571v-903h-245v731h-326v-731h-244v731h-133z" />
<glyph unicode="&#xfb02;" horiz-adv-x="1056" d="M6 731v172h133v80q0 158 81 245t226 87q55 0 103.5 -13.5t87.5 -33.5l-35 -170q-25 14 -49.5 22t-56.5 8q-57 0 -85 -37.5t-28 -101.5v-86h209v-172h-209v-731h-244v731h-133zM709 0v1290h245v-1290h-245z" />
<glyph unicode="&#xfb03;" horiz-adv-x="1626" d="M6 731v172h133v70q0 150 83 235.5t227 85.5q82 0 135 -19.5t94 -45.5l-53 -156q-27 18 -60 29.5t-67 11.5q-59 0 -87 -36t-28 -99v-76h326v41q0 172 105.5 271.5t283.5 99.5q143 0 228 -57.5t126 -167.5l-184 -62q-16 45 -54 76t-102 31q-74 0 -118 -47.5t-44 -135.5v-49 h572v-903h-246v731h-326v-731h-241v731h-326v-731h-244v731h-133z" />
<glyph unicode="&#xfb04;" horiz-adv-x="1626" d="M6 731v172h133v70q0 150 83 235.5t227 85.5q82 0 135 -19.5t94 -45.5l-53 -156q-27 18 -60 29.5t-67 11.5q-59 0 -87 -36t-28 -99v-76h326v80q0 158 79.5 245t225.5 87q57 0 105 -13.5t87 -33.5l-37 -170q-23 14 -47 22t-57 8q-57 0 -86 -37.5t-29 -101.5v-86h211v-172 h-211v-731h-241v731h-326v-731h-244v731h-133zM1276 0v1290h246v-1290h-246z" />
<glyph horiz-adv-x="0" />
<glyph unicode="&#xd;" horiz-adv-x="452" />
<glyph horiz-adv-x="0" />
<glyph horiz-adv-x="0" />
<glyph unicode=" "  horiz-adv-x="368" />
<glyph unicode="&#x09;" horiz-adv-x="368" />
<glyph unicode="&#xa0;" horiz-adv-x="368" />
<glyph unicode="!" horiz-adv-x="430" d="M78 0v274h274v-274h-274zM84 942v348h262v-348l-59 -561h-144z" />
<glyph unicode="&#x22;" horiz-adv-x="665" d="M78 799v491h201v-491h-201zM387 799v491h201v-491h-201z" />
<glyph unicode="#" horiz-adv-x="1253" d="M41 340l33 160h202l70 291h-221l33 159h225l82 340h192l-82 -340h246l82 340h191l-82 -340h200l-32 -159h-205l-70 -291h223l-32 -160h-228l-82 -340h-190l82 340h-246l-82 -340h-192l82 340h-199zM469 500h246l69 291h-245z" />
<glyph unicode="$" horiz-adv-x="1183" d="M45 459l229 10q8 -123 78 -195.5t170 -93.5v363l-106 18q-147 27 -241.5 114t-94.5 247q0 172 118.5 277.5t323.5 113.5v168h137v-170q207 -23 320 -143.5t115 -313.5l-226 -8q-4 104 -60 172.5t-149 91.5v-358l91 -17q186 -33 278 -123t92 -245q0 -178 -132 -279.5 t-329 -110.5v-184h-137v187q-209 23 -343 146.5t-134 332.5zM319 940q0 -76 53.5 -110t141.5 -50l8 -2v342q-98 -8 -150.5 -53t-52.5 -127zM659 174q100 8 159 53t59 123q0 74 -53.5 111t-155.5 55l-9 2v-344z" />
<glyph unicode="%" horiz-adv-x="1560" d="M49 965q0 164 94.5 257t223.5 93t224 -93.5t95 -256.5q0 -162 -95 -255.5t-224 -93.5t-223.5 93.5t-94.5 255.5zM231 965q0 -109 36 -157t100 -48q63 0 100 48t37 157q0 111 -37 157.5t-100 46.5t-99.5 -46.5t-36.5 -157.5zM354 0l670 1290h180l-669 -1290h-181zM874 326 q0 162 94.5 255t223.5 93t223 -93t94 -255q0 -164 -94 -257.5t-223 -93.5t-223.5 93.5t-94.5 257.5zM1057 326q0 -111 35.5 -158t99.5 -47q63 0 99 47t36 158q0 109 -36 156.5t-99 47.5t-99 -48t-36 -156z" />
<glyph unicode="&#x26;" horiz-adv-x="1327" d="M43 336q0 123 71.5 206t200.5 152q-57 66 -93 132.5t-36 154.5q0 154 113 244t272 90q172 0 264.5 -86t92.5 -213q0 -123 -67.5 -201t-209.5 -149l256 -267q39 57 69 124t50 139l217 -11q-29 -102 -80 -204.5t-121 -190.5q41 -43 78 -66.5t92 -23.5q25 0 48.5 3t56.5 11 v-153q-29 -18 -74 -30.5t-100 -12.5q-57 0 -119.5 23.5t-144.5 92.5q-82 -57 -179.5 -91t-207.5 -34q-190 0 -319.5 93.5t-129.5 267.5zM291 346q0 -86 60.5 -132t150.5 -46q68 0 128 18.5t111 51.5l-301 323q-70 -39 -109.5 -88t-39.5 -127zM420 987q0 -55 33.5 -102 t74.5 -92q102 49 142.5 94t40.5 114q0 53 -35 95.5t-105 42.5q-63 0 -107 -41t-44 -111z" />
<glyph unicode="'" horiz-adv-x="370" d="M78 799v491h213v-491h-213z" />
<glyph unicode="(" horiz-adv-x="645" d="M88 590q0 207 77 410.5t212 351.5h231q-160 -182 -218 -375t-58 -387q0 -195 58.5 -387.5t217.5 -374.5h-231q-135 147 -212 351t-77 411z" />
<glyph unicode=")" horiz-adv-x="645" d="M37 -172q160 182 218 374.5t58 387.5t-58 387t-218 375h231q135 -147 212 -351t77 -411t-77 -411t-212 -351h-231z" />
<glyph unicode="*" horiz-adv-x="753" d="M25 987l49 150l223 -76v239h158v-237l225 76l47 -150l-223 -74l139 -190l-127 -92l-139 190l-137 -192l-127 94l137 190z" />
<glyph unicode="+" horiz-adv-x="1259" d="M98 535v204h430v430h205v-430h428v-204h-428v-429h-205v429h-430z" />
<glyph unicode="," horiz-adv-x="413" d="M70 0v274h274v-262q0 -129 -64.5 -196.5t-209.5 -69.5v129q63 2 93 32t30 93h-123z" />
<glyph unicode="-" horiz-adv-x="720" d="M106 416v215h508v-215h-508z" />
<glyph unicode="." horiz-adv-x="413" d="M70 0v274h274v-274h-274z" />
<glyph unicode="/" horiz-adv-x="698" d="M-41 -170l508 1520h229l-510 -1520h-227z" />
<glyph unicode="0" horiz-adv-x="1232" d="M59 645q0 319 150.5 494.5t406.5 175.5q258 0 409 -175.5t151 -494.5t-151 -494.5t-409 -175.5q-256 0 -406.5 175.5t-150.5 494.5zM330 645q0 -231 69.5 -347t216.5 -116q150 0 219.5 116t69.5 347t-69.5 347t-219.5 116q-147 0 -216.5 -115.5t-69.5 -347.5z" />
<glyph unicode="1" horiz-adv-x="655" d="M23 930v168q135 0 204.5 48t104.5 148h188v-1294h-256v930h-241z" />
<glyph unicode="2" horiz-adv-x="1048" d="M51 0v172l361 297q150 125 230.5 217t80.5 209q0 88 -48 146.5t-153 58.5q-106 0 -160.5 -68.5t-54.5 -179.5q0 -33 3 -59.5t12 -53.5l-254 11q-6 31 -10.5 61.5t-4.5 58.5q0 203 131 324t344 121q229 0 346 -117t117 -289q0 -170 -104.5 -290.5t-249.5 -237.5l-205 -164 h592v-217h-973z" />
<glyph unicode="3" horiz-adv-x="1081" d="M37 440l252 -10q4 -123 75.5 -185.5t188.5 -62.5q94 0 157.5 47.5t63.5 137.5q0 92 -65.5 139t-165.5 47q-29 0 -56.5 -2t-54.5 -4v192q20 -2 49 -3t64 -1q82 0 144.5 41t62.5 139q0 86 -53.5 139.5t-157.5 53.5q-111 0 -173.5 -75t-62.5 -197l-248 10q0 199 131 334 t359 135q219 0 340 -104.5t121 -270.5q0 -119 -75 -196.5t-167 -90.5q123 -20 196.5 -102t73.5 -205q0 -170 -132 -270.5t-351 -100.5q-240 0 -378 126t-138 339z" />
<glyph unicode="4" horiz-adv-x="1159" d="M35 311v238l598 741h309v-766h197v-213h-197v-311h-252v311h-655zM256 524h434v541z" />
<glyph unicode="5" horiz-adv-x="1079" d="M68 455l249 -19q0 -117 63.5 -185.5t182.5 -68.5q109 0 173.5 66.5t64.5 179.5q0 104 -62.5 175t-173.5 71q-86 0 -141 -38t-86 -89l-250 18q25 133 52.5 349t31.5 376h780v-227h-590q-2 -47 -15 -148.5t-21 -144.5q39 39 106.5 69.5t163.5 30.5q221 0 333.5 -129 t112.5 -311q0 -207 -135 -331t-346 -124q-244 0 -373 131.5t-120 348.5z" />
<glyph unicode="6" horiz-adv-x="1134" d="M59 629q0 299 136.5 492.5t410.5 193.5q199 0 324 -104.5t141 -290.5l-240 -7q-12 90 -68.5 143.5t-160.5 53.5q-154 0 -230.5 -128t-78.5 -329q39 86 126 141.5t214 55.5q209 0 330.5 -120t121.5 -308q0 -203 -135 -325t-352 -122q-262 0 -400.5 177.5t-138.5 476.5z M346 416q0 -104 66.5 -171t181.5 -67q117 0 181.5 66.5t64.5 171.5q0 109 -65.5 174t-182.5 65t-181.5 -65t-64.5 -174z" />
<glyph unicode="7" horiz-adv-x="1015" d="M35 1059v231h944v-186q-244 -250 -316.5 -520.5t-74.5 -583.5h-281q4 328 100 590t289 469h-661z" />
<glyph unicode="8" horiz-adv-x="1110" d="M47 346q0 123 74 206t178 107q-100 39 -154.5 113t-54.5 184q0 166 131 262.5t334 96.5t334 -96.5t131 -262.5q0 -111 -54.5 -184.5t-154.5 -112.5q104 -25 178 -107.5t74 -205.5q0 -170 -135 -270.5t-373 -100.5q-240 0 -374 100.5t-134 270.5zM307 369 q0 -94 65.5 -147.5t182.5 -53.5t182.5 53t65.5 148q0 96 -65.5 146t-182.5 50t-182.5 -50t-65.5 -146zM342 932q0 -88 59.5 -136t153.5 -48q98 0 157.5 48t59.5 136q0 96 -59.5 145t-157.5 49q-94 0 -153.5 -49t-59.5 -145z" />
<glyph unicode="9" horiz-adv-x="1134" d="M49 868q0 203 135 325t353 122q262 0 400 -177t138 -476t-136 -493t-411 -194q-199 0 -323.5 104.5t-141.5 291.5l240 6q12 -90 68.5 -143.5t160.5 -53.5q154 0 231 128t79 329q-39 -86 -126 -141.5t-214 -55.5q-209 0 -331 120t-122 308zM295 874q0 -109 65.5 -174 t182.5 -65t181 65t64 174q0 104 -66.5 171t-180.5 67q-117 0 -181.5 -66.5t-64.5 -171.5z" />
<glyph unicode=":" horiz-adv-x="413" d="M70 0v274h274v-274h-274zM70 600v274h274v-274h-274z" />
<glyph unicode=";" horiz-adv-x="413" d="M70 0v274h274v-262q0 -129 -64.5 -196.5t-209.5 -69.5v129q63 2 93 32t30 93h-123zM70 600v274h274v-274h-274z" />
<glyph unicode="&#x3c;" horiz-adv-x="958" d="M74 496v274l809 389v-235l-623 -291l623 -291v-238z" />
<glyph unicode="=" horiz-adv-x="1296" d="M117 352v191h1063v-191h-1063zM117 733v193h1063v-193h-1063z" />
<glyph unicode="&#x3e;" horiz-adv-x="958" d="M74 104v238l622 291l-622 291v235l811 -389v-274z" />
<glyph unicode="?" horiz-adv-x="1034" d="M49 870q0 203 131 324t344 121q227 0 344 -115t117 -274q0 -129 -73.5 -215t-174.5 -162q-53 -43 -77.5 -79t-26.5 -87h-236q2 82 35 148.5t109 125.5q68 53 121 108.5t53 149.5q0 76 -48.5 130.5t-144.5 54.5q-111 0 -166 -68.5t-55 -179.5q0 -33 4 -59.5t10 -53.5 l-252 11q-6 31 -10 61.5t-4 58.5zM375 0v274h272v-274h-272z" />
<glyph unicode="@" horiz-adv-x="1572" d="M59 373q0 334 219.5 561t581.5 227q309 0 484.5 -171t175.5 -429q0 -250 -127 -370.5t-283 -120.5q-92 0 -144.5 40t-72.5 99q-37 -66 -95.5 -102.5t-140.5 -36.5q-119 0 -192.5 76.5t-73.5 213.5q0 170 100.5 306.5t270.5 136.5q82 0 137 -35t76 -86l31 104h198 l-119 -473q-14 -61 3.5 -85.5t60.5 -24.5q94 0 154.5 87t60.5 271q0 207 -130 332t-374 125q-289 0 -464 -179.5t-175 -467.5q0 -250 160 -385.5t399 -135.5q117 0 217.5 20.5t204.5 72.5l47 -117q-102 -61 -221 -89t-250 -28q-305 0 -512 173t-207 491zM608 371 q0 -70 25.5 -108t85.5 -38q57 0 109 45.5t75 145.5l10 45q20 90 -10.5 143t-103.5 53q-88 0 -139.5 -93t-51.5 -193z" />
<glyph unicode="A" horiz-adv-x="1357" d="M12 0l523 1290h284l527 -1290h-273l-129 319h-549l-125 -319h-258zM473 516h393l-194 483h-8z" />
<glyph unicode="B" horiz-adv-x="1249" d="M113 0v1290h573q244 0 354.5 -96t110.5 -254q0 -109 -67 -181.5t-171 -88.5q117 -20 197 -99t80 -217q0 -166 -123 -260t-348 -94h-606zM362 207h328q119 0 178.5 47t59.5 127q0 82 -59.5 130t-178.5 48h-328v-352zM362 754h308q115 0 167 46t52 118t-52.5 118.5 t-166.5 46.5h-308v-329z" />
<glyph unicode="C" horiz-adv-x="1366" d="M53 645q0 297 186.5 483.5t460.5 186.5q285 0 441.5 -161t173.5 -404l-246 -11q-14 143 -103 247t-266 104q-172 0 -276.5 -121t-104.5 -324t104.5 -323.5t276.5 -120.5q176 0 265.5 103.5t103.5 246.5l246 -10q-16 -244 -173 -405t-442 -161q-274 0 -460.5 186.5 t-186.5 483.5z" />
<glyph unicode="D" horiz-adv-x="1329" d="M113 0v1290h487q309 0 491.5 -172t182.5 -473t-182.5 -473t-491.5 -172h-487zM369 205h215q203 0 314.5 117.5t111.5 324.5q0 205 -112 321.5t-314 116.5h-215v-880z" />
<glyph unicode="E" horiz-adv-x="1144" d="M113 0v1290h946v-213h-694v-313h544v-211h-544v-340h712v-213h-964z" />
<glyph unicode="F" horiz-adv-x="1087" d="M113 0v1290h923v-213h-667v-344h516v-209h-516v-524h-256z" />
<glyph unicode="G" horiz-adv-x="1421" d="M53 645q0 297 188.5 483.5t458.5 186.5q279 0 436.5 -143.5t178.5 -387.5l-250 -10q-12 141 -105.5 228.5t-252.5 87.5q-176 0 -282 -121t-106 -324q0 -207 110 -329.5t298 -122.5q135 0 230.5 72.5t121.5 195.5h-342v190h582v-651h-227v190q-47 -106 -160 -160.5 t-250 -54.5q-268 0 -448.5 185.5t-180.5 484.5z" />
<glyph unicode="H" horiz-adv-x="1376" d="M113 0v1290h256v-526h637v526h256v-1290h-256v553h-637v-553h-256z" />
<glyph unicode="I" horiz-adv-x="483" d="M113 0v1290h256v-1290h-256z" />
<glyph unicode="J" horiz-adv-x="1095" d="M20 475l246 10q8 -139 70.5 -217t179.5 -78t173 69t56 210v821h256v-837q0 -244 -135 -361t-350 -117q-223 0 -356 128t-140 372z" />
<glyph unicode="K" horiz-adv-x="1251" d="M113 0v1290h256v-583l551 583h299l-529 -559l572 -731h-308l-452 565l-133 -137v-428h-256z" />
<glyph unicode="L" horiz-adv-x="1101" d="M113 0v1290h256v-1077h682v-213h-938z" />
<glyph unicode="M" horiz-adv-x="1581" d="M113 0v1290h403l283 -938h6l268 938h395v-1290h-258v1016h-8l-309 -1016h-219l-316 1016h-8v-1016h-237z" />
<glyph unicode="N" horiz-adv-x="1327" d="M113 0v1290h254l610 -860v860h237v-1290h-204l-660 909v-909h-237z" />
<glyph unicode="O" horiz-adv-x="1415" d="M53 645q0 297 187.5 483.5t468.5 186.5t467 -186.5t186 -483.5t-186.5 -483.5t-466.5 -186.5q-281 0 -468.5 186.5t-187.5 483.5zM319 645q0 -203 105.5 -323.5t284.5 -120.5q178 0 283.5 120.5t105.5 323.5t-105.5 324t-283.5 121t-284 -121t-106 -324z" />
<glyph unicode="P" horiz-adv-x="1173" d="M113 0v1290h514q246 0 382 -110.5t136 -311.5t-136.5 -312.5t-381.5 -111.5h-260v-444h-254zM367 653h251q143 0 210 54.5t67 158.5t-66.5 160.5t-210.5 56.5h-251v-430z" />
<glyph unicode="Q" horiz-adv-x="1415" d="M53 645q0 297 187.5 483.5t468.5 186.5t467 -186.5t186 -483.5q0 -137 -44 -255t-124 -206l117 -133l-144 -114l-114 131q-74 -45 -162 -69t-182 -24q-281 0 -468.5 186.5t-187.5 483.5zM319 645q0 -203 106 -325.5t284 -122.5q55 0 104 11t90 32l-139 157l141 121 l131 -151q31 53 47.5 123.5t16.5 154.5q0 203 -106.5 324t-284.5 121t-284 -121t-106 -324z" />
<glyph unicode="R" horiz-adv-x="1263" d="M113 0v1290h583q246 0 369 -107.5t123 -285.5q0 -145 -84 -229t-201 -99q111 -20 169 -86.5t69 -179.5q12 -141 22 -204.5t43 -98.5h-262q-20 27 -32.5 93.5t-20.5 172.5q-8 109 -60.5 160t-162.5 51h-303v-477h-252zM365 678h297q139 0 205.5 48t66.5 153 q0 96 -66.5 150t-205.5 54h-297v-405z" />
<glyph unicode="S" horiz-adv-x="1191" d="M43 459l236 10q8 -150 104 -220.5t231 -70.5q119 0 191 45t72 127q0 74 -56.5 108t-156.5 54l-246 45q-150 27 -245 114t-95 247q0 180 133 288.5t358 108.5q252 0 391.5 -124t141.5 -337l-236 -8q-6 131 -87 199.5t-212 68.5q-113 0 -175 -48t-62 -130q0 -70 48 -101.5 t136 -48.5l238 -43q190 -35 281 -128t91 -248q0 -190 -146.5 -291t-363.5 -101q-248 0 -409.5 126.5t-161.5 357.5z" />
<glyph unicode="T" horiz-adv-x="1269" d="M47 1077v213h1176v-213h-463v-1077h-256v1077h-457z" />
<glyph unicode="U" horiz-adv-x="1304" d="M100 502v788h254v-762q0 -166 73 -252t224 -86q154 0 226.5 85t72.5 251v764h256v-788q0 -281 -162 -404t-393 -123t-391 123t-160 404z" />
<glyph unicode="V" horiz-adv-x="1316" d="M12 1290h269l381 -979h8l377 979h256l-508 -1290h-273z" />
<glyph unicode="W" horiz-adv-x="1755" d="M12 1290h256l238 -948h8l250 948h235l252 -950h9l235 950h246l-334 -1290h-283l-243 930h-9l-245 -930h-281z" />
<glyph unicode="X" horiz-adv-x="1310" d="M12 0l498 662l-457 628h301l310 -430l307 430h284l-456 -612l497 -678h-301l-350 477l-348 -477h-285z" />
<glyph unicode="Y" horiz-adv-x="1273" d="M12 1290h285l350 -547l338 547h277l-500 -792v-498h-250v498z" />
<glyph unicode="Z" horiz-adv-x="1179" d="M61 0v190l713 887h-704v213h1030v-196l-715 -881h733v-213h-1057z" />
<glyph unicode="[" horiz-adv-x="612" d="M139 -172v1524h408v-176h-185v-1172h185v-176h-408z" />
<glyph unicode="\" horiz-adv-x="698" d="M4 1350h227l508 -1520h-227z" />
<glyph unicode="]" horiz-adv-x="612" d="M68 4h184v1172h-184v176h405v-1524h-405v176z" />
<glyph unicode="^" horiz-adv-x="800" d="M20 868l256 422h250l254 -422h-227l-152 258l-151 -258h-230z" />
<glyph unicode="_" horiz-adv-x="780" d="M41 -86h698v-188h-698v188z" />
<glyph unicode="`" d="M324 1290h264l110 -274h-176z" />
<glyph unicode="a" horiz-adv-x="1038" d="M55 227q0 129 95.5 191.5t248.5 93.5l248 49v21q0 76 -40 118.5t-118 42.5q-76 0 -119.5 -42t-58.5 -107l-223 20q23 137 128.5 225.5t283.5 88.5q174 0 280.5 -85t106.5 -263v-361q0 -35 17.5 -52t45.5 -17q18 0 37 5t39 13v-131q-29 -23 -68.5 -40t-101.5 -17 q-76 0 -125 41.5t-65 115.5q-39 -78 -123 -119t-185 -41q-141 0 -222 67t-81 183zM295 246q0 -45 33.5 -72t91.5 -27q96 0 161.5 67.5t65.5 176.5v23l-170 -37q-80 -16 -131 -40t-51 -91z" />
<glyph unicode="b" horiz-adv-x="1120" d="M104 0v1290h246v-561q31 82 111 140.5t201 58.5q199 0 303 -139.5t104 -337.5q0 -199 -104.5 -337.5t-307.5 -138.5q-117 0 -200.5 57.5t-118.5 141.5l-45 -174h-189zM348 434q0 -123 66.5 -194.5t171.5 -71.5q117 0 176 78t59 205q0 129 -59.5 206.5t-175.5 77.5 q-104 0 -171 -71.5t-67 -194.5v-35z" />
<glyph unicode="c" horiz-adv-x="1011" d="M51 451q0 213 135.5 345t341.5 132q201 0 311.5 -116t125.5 -277l-207 -15q-14 100 -71.5 159.5t-158.5 59.5q-100 0 -164.5 -73.5t-64.5 -214.5q0 -139 64.5 -213t164.5 -74t157.5 60.5t72.5 162.5l207 -18q-14 -162 -125 -278t-312 -116q-207 0 -342 131.5t-135 344.5z " />
<glyph unicode="d" horiz-adv-x="1118" d="M51 451q0 199 103.5 338t304.5 139q119 0 199.5 -58.5t111.5 -140.5v561h246v-1290h-246v172q-31 -82 -111.5 -139.5t-199.5 -57.5q-201 0 -304.5 138.5t-103.5 337.5zM299 451q0 -127 59.5 -205t173.5 -78q104 0 172 71.5t68 194.5v35q0 123 -67.5 194.5t-172.5 71.5 q-115 0 -174 -77.5t-59 -206.5z" />
<glyph unicode="e" d="M51 438q0 213 135.5 351.5t337.5 138.5q219 0 333 -133t114 -318v-88h-678q6 -100 75.5 -163.5t170.5 -63.5q90 0 145 38.5t82 114.5l199 -20q-35 -150 -149 -235t-286 -85q-207 0 -343 125t-136 338zM297 543h434q-6 78 -56 141.5t-153 63.5q-100 0 -154.5 -60.5 t-70.5 -144.5z" />
<glyph unicode="f" horiz-adv-x="622" d="M6 731v172h133v76q0 158 89 247t241 89q123 0 198.5 -57.5t104.5 -163.5l-158 -52q-14 43 -44.5 70t-77.5 27q-57 0 -83 -39t-26 -103v-94h242v-172h-242v-731h-244v731h-133z" />
<glyph unicode="g" horiz-adv-x="1017" d="M8 -129q0 70 50.5 116t129.5 56q-61 20 -93 65.5t-32 100.5q0 61 40 106t106 72q-57 39 -91 98.5t-34 132.5q0 143 114.5 226.5t293.5 83.5q84 0 157.5 -21.5t128.5 -60.5q39 55 102.5 93t137.5 38v-197q-37 0 -79 -6t-75 -16q16 -31 26.5 -66t10.5 -74 q0 -141 -115.5 -223t-293.5 -82q-55 0 -105.5 8.5t-93.5 24.5q-14 -10 -25.5 -27.5t-11.5 -37.5q0 -31 21.5 -49.5t72.5 -18.5h361q150 0 226.5 -72.5t76.5 -181.5q0 -168 -167 -243.5t-376 -75.5q-186 0 -324.5 53t-138.5 178zM231 -92q0 -61 65.5 -90t174.5 -29 q135 0 223 32t88 97q0 45 -34.5 63.5t-96.5 18.5h-301q-49 0 -84 -21.5t-35 -70.5zM338 618q0 -78 43 -118.5t113 -40.5t113.5 40.5t43.5 118.5t-44 119t-113 41q-70 0 -113 -41t-43 -119z" />
<glyph unicode="h" horiz-adv-x="1067" d="M104 0v1290h246v-534q33 76 114 124t181 48q180 0 255 -107.5t75 -257.5v-563h-246v514q0 104 -43 161.5t-133 57.5q-94 0 -148.5 -68.5t-54.5 -181.5v-483h-246z" />
<glyph unicode="i" horiz-adv-x="452" d="M100 1051v239h252v-239h-252zM104 0v903h246v-903h-246z" />
<glyph unicode="j" horiz-adv-x="452" d="M-166 -295l45 152q35 -23 68 -33t69 -10q43 0 65.5 25.5t22.5 80.5v983h246v-983q0 -141 -75.5 -210.5t-211.5 -69.5q-68 0 -129 17t-100 48zM100 1051v239h252v-239h-252z" />
<glyph unicode="k" horiz-adv-x="1046" d="M104 0v1290h246v-749l385 362h297l-397 -362l412 -541h-281l-311 403l-105 -96v-307h-246z" />
<glyph unicode="l" horiz-adv-x="452" d="M104 0v1290h246v-1290h-246z" />
<glyph unicode="m" horiz-adv-x="1642" d="M104 0v903h246v-147q33 76 107.5 124t177.5 48q119 0 189.5 -52.5t99.5 -134.5q37 80 115.5 133.5t189.5 53.5q182 0 251.5 -108.5t69.5 -256.5v-563h-245v514q0 104 -37 161.5t-127 57.5q-88 0 -139.5 -68.5t-51.5 -181.5v-483h-245v514q0 104 -38 161.5t-126 57.5 t-139.5 -68.5t-51.5 -181.5v-483h-246z" />
<glyph unicode="n" horiz-adv-x="1067" d="M104 0v903h246v-147q33 76 114 124t181 48q180 0 255 -107.5t75 -257.5v-563h-246v514q0 104 -43 161.5t-133 57.5q-94 0 -148.5 -68.5t-54.5 -181.5v-483h-246z" />
<glyph unicode="o" horiz-adv-x="1054" d="M51 451q0 209 134 343t341 134q209 0 343.5 -134t134.5 -343t-134.5 -342.5t-343.5 -133.5q-207 0 -341 133.5t-134 342.5zM299 451q0 -127 58.5 -208t168.5 -81q113 0 171.5 81t58.5 208q0 129 -58.5 209.5t-171.5 80.5q-111 0 -169 -80.5t-58 -209.5z" />
<glyph unicode="p" horiz-adv-x="1120" d="M104 -336v1239h246v-174q31 82 111 140.5t201 58.5q199 0 303 -139.5t104 -337.5q0 -199 -104.5 -337.5t-302.5 -138.5q-121 0 -201 57.5t-111 139.5v-508h-246zM348 434q0 -123 66.5 -194.5t171.5 -71.5q117 0 176 78t59 205q0 129 -59.5 206.5t-175.5 77.5 q-104 0 -171 -71.5t-67 -194.5v-35z" />
<glyph unicode="q" horiz-adv-x="1118" d="M51 451q0 199 103.5 338t304.5 139q119 0 199.5 -58.5t111.5 -140.5v174h246v-1239h-246v508q-31 -82 -111.5 -139.5t-199.5 -57.5q-201 0 -304.5 138.5t-103.5 337.5zM299 451q0 -127 59.5 -205t173.5 -78q104 0 172 71.5t68 194.5v35q0 123 -67.5 194.5t-172.5 71.5 q-115 0 -174 -77.5t-59 -206.5z" />
<glyph unicode="r" horiz-adv-x="739" d="M104 0v903h246v-172q25 76 91.5 136.5t160.5 60.5q41 0 74 -10.5t53 -26.5l-18 -229q-35 20 -69 29t-79 9q-94 0 -153.5 -65.5t-59.5 -188.5v-446h-246z" />
<glyph unicode="s" horiz-adv-x="913" d="M39 299l213 8q10 -82 68.5 -123t152.5 -41q68 0 116 23.5t48 73.5q0 45 -32 68.5t-99 33.5l-144 25q-143 23 -221 84t-78 186q0 129 101.5 210t273.5 81q186 0 295 -82t121 -232l-203 -8q-12 76 -65.5 115t-149.5 39q-66 0 -105.5 -27.5t-39.5 -73.5q0 -37 24.5 -58 t73.5 -30l172 -28q141 -23 222 -88.5t81 -192.5q0 -137 -109.5 -212t-283.5 -75q-176 0 -298 79t-134 245z" />
<glyph unicode="t" horiz-adv-x="675" d="M6 731v146l62 10q66 10 92 45t41 98l28 123h150v-250h246v-172h-246v-446q0 -57 26.5 -85t81.5 -28q37 0 76 12.5t78 30.5v-162q-49 -37 -108.5 -57.5t-141.5 -20.5q-104 0 -180 55.5t-76 198.5v502h-129z" />
<glyph unicode="u" horiz-adv-x="1056" d="M94 338v565h246v-516q0 -102 41 -160.5t131 -58.5t142.5 68.5t52.5 183.5v483h245v-903h-245v147q-35 -78 -112 -125t-179 -47q-178 0 -250 106.5t-72 256.5z" />
<glyph unicode="v" horiz-adv-x="995" d="M6 903h258l240 -631h8l238 631h239l-356 -903h-271z" />
<glyph unicode="w" horiz-adv-x="1398" d="M6 903h244l188 -602h8l164 602h199l166 -602h8l186 602h224l-287 -903h-238l-163 596h-9l-164 -596h-239z" />
<glyph unicode="x" horiz-adv-x="1007" d="M6 0l363 463l-334 440h276l197 -266l199 266h258l-332 -430l368 -473h-278l-229 301l-230 -301h-258z" />
<glyph unicode="y" horiz-adv-x="1007" d="M6 903h258l246 -616h8l244 616h239l-518 -1239h-241l139 332z" />
<glyph unicode="z" horiz-adv-x="899" d="M57 0v168l471 553h-458v182h761v-168l-479 -553h492v-182h-787z" />
<glyph unicode="{" horiz-adv-x="647" d="M63 504v172h52q63 0 79.5 32.5t16.5 116.5v285q0 119 58.5 180.5t166.5 61.5h146v-176h-82q-41 0 -52.5 -21.5t-11.5 -54.5v-285q0 -98 -35.5 -154.5t-124.5 -70.5q88 -14 124 -70.5t36 -154.5v-285q0 -33 11.5 -54.5t52.5 -21.5h82v-176h-146q-109 0 -167 61.5 t-58 180.5v284q0 84 -16.5 117t-79.5 33h-52z" />
<glyph unicode="|" horiz-adv-x="442" d="M113 -170v1520h217v-1520h-217z" />
<glyph unicode="}" horiz-adv-x="647" d="M68 4h82q39 0 51 21.5t12 54.5v285q0 98 35 154t123 71q-88 14 -123 70.5t-35 154.5v285q0 33 -12.5 54.5t-50.5 21.5h-82v176h143q111 0 168 -61.5t57 -180.5v-285q0 -84 16.5 -116.5t79.5 -32.5h52v-172h-52q-63 0 -79.5 -33t-16.5 -117v-284q0 -119 -57 -180.5 t-168 -61.5h-143v176z" />
<glyph unicode="~" horiz-adv-x="815" d="M84 422q0 127 47 206t141 79q80 0 135.5 -51.5t112.5 -51.5q35 0 53.5 23.5t22.5 72.5h133q0 -127 -46 -206.5t-140 -79.5q-82 0 -136.5 52t-111.5 52q-35 0 -53.5 -23.5t-22.5 -72.5h-135z" />
<glyph unicode="&#xa1;" horiz-adv-x="430" d="M78 786v275h274v-275h-274zM84 119l59 561h144l59 -561v-348h-262v348z" />
<glyph unicode="&#xa2;" horiz-adv-x="1044" d="M51 451q0 199 120 326.5t306 148.5v180h141v-184q170 -23 266.5 -132.5t110.5 -254.5l-204 -13q-12 84 -57.5 139.5t-115.5 75.5v-571q70 18 115 73.5t60 143.5l202 -14q-14 -145 -110.5 -255t-266.5 -132v-179h-141v174q-186 20 -306 147.5t-120 326.5zM291 451 q0 -123 50 -196t136 -93v579q-86 -20 -136 -93.5t-50 -196.5z" />
<glyph unicode="&#xa3;" horiz-adv-x="1206" d="M23 203q0 98 68.5 158.5t172.5 60.5q35 0 66.5 -7t62.5 -20q-4 51 -17.5 93t-31.5 79h-227v150h145q-20 43 -33.5 91t-13.5 110q0 178 120 287.5t314 109.5q217 0 336 -123t119 -330l-219 -10q-2 125 -60.5 192.5t-158.5 67.5q-96 0 -141.5 -56.5t-45.5 -144.5 q0 -55 12.5 -102t30.5 -92h281v-150h-221q10 -37 18 -77.5t8 -86.5q0 -33 -3 -65.5t-9 -61.5q51 -33 104.5 -55t116.5 -22q90 0 127 50t37 154l184 -10q14 -211 -68.5 -314.5t-234.5 -103.5q-109 0 -191.5 39t-148.5 90q-45 -59 -110.5 -94t-149.5 -35q-102 0 -170.5 60.5 t-68.5 167.5zM182 199q0 -33 24.5 -53.5t59.5 -20.5q41 0 68.5 26.5t42.5 73.5q-29 23 -57.5 37t-55.5 14q-39 0 -60.5 -19t-21.5 -58z" />
<glyph unicode="&#xa5;" horiz-adv-x="1247" d="M8 1290h285l342 -536l330 536h274l-389 -602h252v-158h-354v-124h354v-160h-354v-246h-248v246h-353v160h353v124h-353v158h250z" />
<glyph unicode="&#xa7;" horiz-adv-x="983" d="M41 623q0 70 39 132t96 101q-29 33 -45 74t-16 96q0 123 102 206t275 83q176 0 285.5 -82t123.5 -232l-201 -8q-12 80 -71.5 120t-141.5 40q-59 0 -103 -28.5t-44 -86.5q0 -35 19.5 -61.5t76.5 -50.5l238 -101q127 -53 197.5 -128.5t70.5 -198.5q0 -70 -39 -132.5 t-96 -101.5q29 -33 45 -73.5t16 -96.5q0 -123 -102 -206t-274 -83q-176 0 -286 82t-124 232l201 8q12 -80 71.5 -119t141.5 -39q59 0 103 28t44 85q0 35 -19.5 61.5t-76.5 51.5l-238 100q-127 53 -197.5 129t-70.5 199zM256 643q0 -51 28.5 -82t92.5 -59l254 -121 q6 -2 12 -6t12 -6q29 14 50.5 41.5t21.5 68.5q0 51 -28.5 81t-92.5 58l-254 121q-6 2 -12 6.5t-12 6.5q-29 -14 -50.5 -42t-21.5 -67z" />
<glyph unicode="&#xa8;" d="M233 1042v240h226v-240h-226zM565 1042v240h223v-240h-223z" />
<glyph unicode="&#xa9;" horiz-adv-x="1482" d="M72 645q0 291 197.5 480.5t471.5 189.5t472 -189.5t198 -480.5t-197.5 -480.5t-472.5 -189.5q-274 0 -471.5 189.5t-197.5 480.5zM170 645q0 -248 169 -410.5t402 -162.5t402.5 162.5t169.5 410.5t-169 411t-403 163q-233 0 -402 -163t-169 -411zM346 645 q0 182 114.5 296t282.5 114q176 0 272.5 -99.5t106.5 -248.5l-166 -7q-8 80 -58 137.5t-148 57.5q-100 0 -156.5 -67.5t-56.5 -182.5q0 -113 56 -180.5t157 -67.5q98 0 148 56.5t58 136.5l166 -8q-10 -150 -106 -249.5t-273 -99.5q-168 0 -282.5 115t-114.5 297z" />
<glyph unicode="&#xaa;" horiz-adv-x="837" d="M47 766q0 102 73 151.5t193 69.5l197 37v20q0 53 -28.5 85t-86.5 32q-57 0 -88 -30.5t-43 -77.5l-192 16q18 111 102 181.5t229 70.5q139 0 226.5 -68t87.5 -209v-274q0 -27 13 -40t34 -13q14 0 29.5 3t29.5 11v-115q-25 -18 -57.5 -30.5t-81.5 -12.5q-63 0 -107.5 35 t-58.5 99q-31 -63 -94.5 -99.5t-149.5 -36.5q-102 0 -164.5 51.5t-62.5 143.5zM252 791q0 -35 23.5 -57.5t68.5 -22.5q70 0 118 50t48 134v23l-127 -27q-61 -14 -96 -34.5t-35 -65.5z" />
<glyph unicode="&#xab;" horiz-adv-x="905" d="M78 350v209l350 260v-219l-195 -145l195 -148v-217zM477 350v209l350 260v-219l-194 -145l194 -148v-217z" />
<glyph unicode="&#xad;" horiz-adv-x="720" d="M106 416v215h508v-215h-508z" />
<glyph unicode="&#xae;" horiz-adv-x="833" d="M45 940q0 162 109.5 268.5t261.5 106.5q154 0 263 -106.5t109 -268.5t-109.5 -268.5t-262.5 -106.5q-152 0 -261.5 106.5t-109.5 268.5zM113 940q0 -135 89 -223t214 -88q127 0 216 88t89 223t-89 223t-216 88q-125 0 -214 -88t-89 -223zM258 745v394h191q76 0 113.5 -33 t37.5 -90q0 -43 -24.5 -69.5t-61.5 -33.5q33 -6 51.5 -24.5t20.5 -52.5q2 -43 6 -62t14 -29h-104q-8 8 -12.5 23.5t-6.5 48.5t-16 46.5t-45 13.5h-64v-132h-100zM358 954h66q35 0 53.5 12.5t18.5 39.5t-18.5 39t-53.5 12h-66v-103z" />
<glyph unicode="&#xaf;" d="M240 1034v172h542v-172h-542z" />
<glyph unicode="&#xb0;" horiz-adv-x="722" d="M61 1024q0 123 87.5 207t213.5 84q127 0 213.5 -84t86.5 -207t-86.5 -208t-213.5 -85t-214 85t-87 208zM217 1024q0 -61 40 -104t105 -43q66 0 105 43t39 104t-39 103t-105 42t-105.5 -42t-39.5 -103z" />
<glyph unicode="&#xb1;" horiz-adv-x="1275" d="M119 59v203h1040v-203h-1040zM119 711v202h418v338h202v-338h420v-202h-420v-338h-202v338h-418z" />
<glyph unicode="&#xb2;" horiz-adv-x="692" d="M41 1020q0 129 86 207t221 78q147 0 225 -75t78 -183q0 -104 -58 -173t-153 -145l-110 -86h334v-164h-619v137l223 181q94 76 136 125t42 112q0 45 -24.5 75t-77.5 30q-57 0 -84 -37t-27 -94q0 -23 3.5 -39.5t5.5 -30.5l-193 6q-2 20 -5 38.5t-3 37.5z" />
<glyph unicode="&#xb3;" horiz-adv-x="714" d="M35 756l192 -6q2 -66 40 -96.5t100 -30.5q47 0 79.5 22.5t32.5 67.5q0 49 -35.5 73.5t-87.5 24.5h-31.5t-31.5 -2v141q10 -2 28.5 -2h36.5q41 0 74 22.5t33 73.5q0 45 -26.5 74t-82.5 29q-57 0 -88.5 -42t-31.5 -108l-189 9q0 125 84 212t231 87q141 0 219 -67t78 -173 q0 -74 -45 -121t-102 -55q78 -14 123 -64.5t45 -126.5q0 -111 -86 -173t-227 -62q-154 0 -243 79t-89 214z" />
<glyph unicode="&#xb4;" d="M324 1016l110 274h264l-198 -274h-176z" />
<glyph unicode="&#xb6;" horiz-adv-x="1103" d="M41 909q0 176 125 278.5t352 102.5h471v-1290h-170v1122h-131v-1122h-170v528q-227 0 -352 102.5t-125 278.5z" />
<glyph unicode="&#xb7;" horiz-adv-x="452" d="M88 387v274h274v-274h-274z" />
<glyph unicode="&#xb8;" horiz-adv-x="1421" d="M477 -285l35 72q33 -23 79 -39t99 -16q41 0 66.5 12t25.5 39q0 51 -56 54t-101 -17l-54 22l125 181h95l-82 -107q88 20 160.5 -10.5t72.5 -114.5q0 -82 -73.5 -115.5t-161.5 -33.5q-76 0 -136.5 23.5t-93.5 49.5z" />
<glyph unicode="&#xb9;" horiz-adv-x="454" d="M18 1038v129q84 0 129.5 30t67.5 93h152v-811h-197v559h-152z" />
<glyph unicode="&#xba;" horiz-adv-x="847" d="M45 944q0 166 106.5 271.5t272.5 105.5t273.5 -105.5t107.5 -271.5t-107.5 -270.5t-273.5 -104.5t-272.5 104.5t-106.5 270.5zM258 944q0 -94 41 -154.5t125 -60.5q82 0 124 60.5t42 154.5t-42 155.5t-124 61.5q-84 0 -125 -61.5t-41 -155.5z" />
<glyph unicode="&#xbb;" horiz-adv-x="905" d="M78 90v217l194 148l-194 145v219l350 -260v-209zM477 90v217l195 148l-195 145v219l350 -260v-209z" />
<glyph unicode="&#xbc;" horiz-adv-x="1533" d="M43 1040v129q84 0 130 30t69 93h149v-813h-194v561h-154zM205 0l805 1290h178l-805 -1290h-178zM778 180v168l361 463h235v-477h111v-154h-111v-180h-192v180h-404zM946 334h236v305z" />
<glyph unicode="&#xbd;" horiz-adv-x="1583" d="M43 1040v129q84 0 130 30t69 93h149v-813h-194v561h-154zM205 0l805 1290h178l-805 -1290h-178zM899 543q0 129 86 206.5t223 77.5q145 0 223 -74.5t78 -185.5q0 -104 -58 -172.5t-153 -144.5l-110 -86h334v-164h-619v137l223 180q94 76 136.5 125.5t42.5 114.5 q0 45 -25 73.5t-78 28.5q-57 0 -83.5 -36.5t-26.5 -94.5q0 -23 3 -39t5 -30l-191 8q-2 18 -6 36.5t-4 39.5z" />
<glyph unicode="&#xbe;" horiz-adv-x="1732" d="M41 758l192 -6q2 -68 39 -98.5t99 -30.5q47 0 79.5 23.5t32.5 68.5q0 49 -35.5 73.5t-87.5 24.5q-14 0 -31.5 -1t-31.5 -3v143q10 -2 28.5 -2h36.5q41 0 74 22.5t33 74.5q0 45 -26.5 72.5t-80.5 27.5q-59 0 -90.5 -42t-31.5 -106l-189 7q0 125 84 213t232 88 q141 0 219 -68t78 -174q0 -74 -45.5 -121t-102.5 -55q78 -12 123 -63.5t45 -127.5q0 -111 -86 -173t-227 -62q-154 0 -242 80t-88 215zM401 0l805 1290h180l-804 -1290h-181zM977 180v168l358 463h238v-477h110v-154h-110v-180h-195v180h-401zM1145 334h233v305z" />
<glyph unicode="&#xbf;" horiz-adv-x="1034" d="M47 135q0 129 74 215t174 162q53 43 77.5 79t26.5 87h236q-2 -82 -35 -148.5t-108 -126.5q-68 -53 -121.5 -108t-53.5 -150q0 -76 48.5 -130t144.5 -54q111 0 166 68.5t55 179.5q0 33 -4 59.5t-10 53.5l252 -11q6 -31 10 -61.5t4 -59.5q0 -203 -131 -323.5t-344 -120.5 q-227 0 -344 114.5t-117 274.5zM385 786v275h272v-275h-272z" />
<glyph unicode="&#xc0;" horiz-adv-x="1357" d="M12 0l523 1290h284l527 -1290h-273l-129 319h-549l-125 -319h-258zM392 1651h264l110 -275h-176zM473 516h393l-194 483h-8z" />
<glyph unicode="&#xc1;" horiz-adv-x="1357" d="M12 0l523 1290h284l527 -1290h-273l-129 319h-549l-125 -319h-258zM473 516h393l-194 483h-8zM578 1376l110 275h264l-198 -275h-176z" />
<glyph unicode="&#xc2;" horiz-adv-x="1357" d="M12 0l523 1290h284l527 -1290h-273l-129 319h-549l-125 -319h-258zM373 1376l170 275h250l170 -275h-164l-131 135l-131 -135h-164zM473 516h393l-194 483h-8z" />
<glyph unicode="&#xc3;" horiz-adv-x="1357" d="M12 0l523 1290h284l527 -1290h-273l-129 319h-549l-125 -319h-258zM371 1376q0 119 44 194t132 75q76 0 128 -49.5t110 -49.5q33 0 50 22.5t19 69.5h127q0 -119 -45 -193.5t-133 -74.5q-76 0 -127 49t-109 49q-33 0 -50 -22.5t-19 -69.5h-127zM473 516h393l-194 483h-8z " />
<glyph unicode="&#xc4;" horiz-adv-x="1357" d="M12 0l523 1290h284l527 -1290h-273l-129 319h-549l-125 -319h-258zM389 1382v238h226v-238h-226zM473 516h393l-194 483h-8zM721 1382v238h223v-238h-223z" />
<glyph unicode="&#xc5;" horiz-adv-x="1357" d="M12 0l523 1290h284l527 -1290h-273l-129 319h-549l-125 -319h-258zM473 516h393l-194 483h-8zM478 1536q0 78 52 130t138 52t138 -52t52 -130t-52 -130t-138 -52t-138 52t-52 130zM588 1536q0 -35 20.5 -57.5t59.5 -22.5t59.5 22.5t20.5 57.5t-20.5 57.5t-59.5 22.5 t-59.5 -22.5t-20.5 -57.5z" />
<glyph unicode="&#xc6;" horiz-adv-x="2019" d="M12 0l819 1290h1102v-213h-694v-313h545v-211h-545v-340h713v-213h-965v342h-489l-215 -342h-271zM623 541h364v565h-8z" />
<glyph unicode="&#xc7;" horiz-adv-x="1366" d="M53 645v2q0 295 186.5 481.5t460.5 186.5q285 0 441.5 -161t173.5 -404l-246 -11q-14 143 -103 247t-266 104q-172 0 -276.5 -121t-104.5 -324t104.5 -323.5t276.5 -120.5q176 0 265.5 103.5t103.5 246.5l246 -10q-16 -244 -174 -406q-137 -139 -375 -158l-47 -61 q88 20 160.5 -10.5t72.5 -114.5q0 -82 -73.5 -115.5t-161.5 -33.5q-76 0 -136.5 23.5t-93.5 49.5l35 72q33 -23 79 -39t99 -16q41 0 67 12t26 39q0 51 -56.5 54t-101.5 -17l-53 22l92 133q-258 10 -434 187q-186 186 -187 483z" />
<glyph unicode="&#xc8;" horiz-adv-x="1144" d="M113 0v1290h946v-213h-694v-313h544v-211h-544v-340h712v-213h-964zM326 1651h264l110 -275h-176z" />
<glyph unicode="&#xc9;" horiz-adv-x="1144" d="M113 0v1290h946v-213h-694v-313h544v-211h-544v-340h712v-213h-964zM512 1376l110 275h264l-198 -275h-176z" />
<glyph unicode="&#xca;" horiz-adv-x="1144" d="M113 0v1290h946v-213h-694v-313h544v-211h-544v-340h712v-213h-964zM307 1376l170 275h250l170 -275h-164l-131 135l-131 -135h-164z" />
<glyph unicode="&#xcb;" horiz-adv-x="1144" d="M113 0v1290h946v-213h-694v-313h544v-211h-544v-340h712v-213h-964zM323 1382v238h226v-238h-226zM655 1382v238h223v-238h-223z" />
<glyph unicode="&#xcc;" horiz-adv-x="483" d="M-34 1651h264l110 -275h-176zM113 0v1290h256v-1290h-256z" />
<glyph unicode="&#xcd;" horiz-adv-x="483" d="M113 0v1290h256v-1290h-256zM150 1376l110 275h264l-198 -275h-176z" />
<glyph unicode="&#xce;" horiz-adv-x="483" d="M-53 1376l170 275h250l170 -275h-164l-131 135l-131 -135h-164zM113 0v1290h256v-1290h-256z" />
<glyph unicode="&#xcf;" horiz-adv-x="483" d="M-37 1382v238h226v-238h-226zM113 0v1290h256v-1290h-256zM295 1382v238h223v-238h-223z" />
<glyph unicode="&#xd0;" horiz-adv-x="1368" d="M23 553v211h129v526h487q309 0 491.5 -172t182.5 -473t-182.5 -473t-491.5 -172h-487v553h-129zM408 205h215q203 0 314.5 117.5t111.5 324.5q0 205 -112 321.5t-314 116.5h-215v-321h315v-211h-315v-348z" />
<glyph unicode="&#xd1;" horiz-adv-x="1327" d="M113 0v1290h254l610 -860v860h237v-1290h-204l-660 909v-909h-237zM379 1376q0 119 44 194t132 75q76 0 128 -49.5t110 -49.5q33 0 50 22.5t19 69.5h127q0 -119 -45 -193.5t-133 -74.5q-76 0 -127 49t-109 49q-33 0 -50 -22.5t-19 -69.5h-127z" />
<glyph unicode="&#xd2;" horiz-adv-x="1415" d="M53 645q0 297 187.5 483.5t468.5 186.5t467 -186.5t186 -483.5t-186.5 -483.5t-466.5 -186.5q-281 0 -468.5 186.5t-187.5 483.5zM319 645q0 -203 105.5 -323.5t284.5 -120.5q178 0 283.5 120.5t105.5 323.5t-105.5 324t-283.5 121t-284 -121t-106 -324zM433 1651h264 l110 -275h-176z" />
<glyph unicode="&#xd3;" horiz-adv-x="1415" d="M53 645q0 297 187.5 483.5t468.5 186.5t467 -186.5t186 -483.5t-186.5 -483.5t-466.5 -186.5q-281 0 -468.5 186.5t-187.5 483.5zM319 645q0 -203 105.5 -323.5t284.5 -120.5q178 0 283.5 120.5t105.5 323.5t-105.5 324t-283.5 121t-284 -121t-106 -324zM619 1376 l110 275h264l-198 -275h-176z" />
<glyph unicode="&#xd4;" horiz-adv-x="1415" d="M53 645q0 297 187.5 483.5t468.5 186.5t467 -186.5t186 -483.5t-186.5 -483.5t-466.5 -186.5q-281 0 -468.5 186.5t-187.5 483.5zM319 645q0 -203 105.5 -323.5t284.5 -120.5q178 0 283.5 120.5t105.5 323.5t-105.5 324t-283.5 121t-284 -121t-106 -324zM414 1376 l170 275h250l170 -275h-164l-131 135l-131 -135h-164z" />
<glyph unicode="&#xd5;" horiz-adv-x="1415" d="M53 645q0 297 187.5 483.5t468.5 186.5t467 -186.5t186 -483.5t-186.5 -483.5t-466.5 -186.5q-281 0 -468.5 186.5t-187.5 483.5zM319 645q0 -203 105.5 -323.5t284.5 -120.5q178 0 283.5 120.5t105.5 323.5t-105.5 324t-283.5 121t-284 -121t-106 -324zM404 1376 q0 119 44 194t132 75q76 0 128 -49.5t110 -49.5q33 0 50 22.5t19 69.5h127q0 -119 -45 -193.5t-133 -74.5q-76 0 -127 49t-109 49q-33 0 -50 -22.5t-19 -69.5h-127z" />
<glyph unicode="&#xd6;" horiz-adv-x="1415" d="M53 645q0 297 187.5 483.5t468.5 186.5t467 -186.5t186 -483.5t-186.5 -483.5t-466.5 -186.5q-281 0 -468.5 186.5t-187.5 483.5zM319 645q0 -203 105.5 -323.5t284.5 -120.5q178 0 283.5 120.5t105.5 323.5t-105.5 324t-283.5 121t-284 -121t-106 -324zM430 1382v238 h226v-238h-226zM762 1382v238h223v-238h-223z" />
<glyph unicode="&#xd7;" horiz-adv-x="1085" d="M90 322l313 311l-313 309l141 141l310 -313l311 313l141 -141l-313 -309l313 -311l-141 -142l-311 312l-310 -312z" />
<glyph unicode="&#xd8;" horiz-adv-x="1415" d="M53 645q0 297 187.5 483.5t468.5 186.5q100 0 189 -25.5t165 -70.5l104 133l119 -86l-108 -140q86 -88 135 -210.5t49 -270.5q0 -297 -186 -483.5t-467 -186.5q-100 0 -192.5 26t-168.5 73l-115 -146l-118 88l118 152q-84 88 -132 210t-48 267zM319 645 q0 -82 18.5 -152.5t53.5 -125.5l527 667q-45 27 -97.5 41.5t-111.5 14.5q-178 0 -284 -121t-106 -324zM496 260q43 -29 97.5 -44t115.5 -15q178 0 283.5 120.5t105.5 323.5q0 86 -19.5 157.5t-56.5 127.5z" />
<glyph unicode="&#xd9;" horiz-adv-x="1304" d="M100 502v788h254v-762q0 -166 73 -252t224 -86q154 0 226.5 85t72.5 251v764h256v-788q0 -281 -162 -404t-393 -123t-391 123t-160 404zM375 1651h264l110 -275h-176z" />
<glyph unicode="&#xda;" horiz-adv-x="1304" d="M100 502v788h254v-762q0 -166 73 -252t224 -86q154 0 226.5 85t72.5 251v764h256v-788q0 -281 -162 -404t-393 -123t-391 123t-160 404zM562 1376l110 275h264l-198 -275h-176z" />
<glyph unicode="&#xdb;" horiz-adv-x="1304" d="M100 502v788h254v-762q0 -166 73 -252t224 -86q154 0 226.5 85t72.5 251v764h256v-788q0 -281 -162 -404t-393 -123t-391 123t-160 404zM356 1376l170 275h250l170 -275h-164l-131 135l-131 -135h-164z" />
<glyph unicode="&#xdc;" horiz-adv-x="1304" d="M100 502v788h254v-762q0 -166 73 -252t224 -86q154 0 226.5 85t72.5 251v764h256v-788q0 -281 -162 -404t-393 -123t-391 123t-160 404zM374 1382v238h226v-238h-226zM706 1382v238h223v-238h-223z" />
<glyph unicode="&#xdd;" horiz-adv-x="1273" d="M12 1290h285l350 -547l338 547h277l-500 -792v-498h-250v498zM545 1376l110 275h264l-198 -275h-176z" />
<glyph unicode="&#xde;" horiz-adv-x="1165" d="M113 0v1290h254v-200h251q244 0 381.5 -111t137.5 -311q0 -201 -137.5 -312.5t-381.5 -111.5h-251v-244h-254zM367 453h241q143 0 211 54t68 159q0 104 -67.5 160.5t-211.5 56.5h-241v-430z" />
<glyph unicode="&#xdf;" horiz-adv-x="1048" d="M104 0v879q0 197 115 316.5t316 119.5q180 0 289.5 -89t109.5 -243q0 -104 -51.5 -169.5t-128.5 -92.5q106 -27 172.5 -114t66.5 -228q0 -188 -110.5 -287.5t-268.5 -99.5q-51 0 -85.5 8t-61.5 16v187q23 -8 49.5 -14.5t50.5 -6.5q86 0 141.5 56.5t55.5 162.5 q0 100 -58.5 157.5t-154.5 55.5h-43t-37 -2v191q16 -2 31.5 -3t36.5 -1q80 0 121.5 44t41.5 130q0 70 -40.5 117t-122.5 47q-96 0 -142.5 -71t-46.5 -196v-870h-246z" />
<glyph unicode="&#xe0;" horiz-adv-x="1038" d="M55 227q0 129 95.5 191.5t248.5 93.5l248 49v21q0 76 -40 118.5t-118 42.5q-76 0 -119.5 -42t-58.5 -107l-223 20q23 137 128.5 225.5t283.5 88.5q174 0 280.5 -85t106.5 -263v-361q0 -35 17.5 -52t45.5 -17q18 0 37 5t39 13v-131q-29 -23 -68.5 -40t-101.5 -17 q-76 0 -125 41.5t-65 115.5q-39 -78 -123 -119t-185 -41q-141 0 -222 67t-81 183zM232 1290h264l110 -274h-176zM295 246q0 -45 33.5 -72t91.5 -27q96 0 161.5 67.5t65.5 176.5v23l-170 -37q-80 -16 -131 -40t-51 -91z" />
<glyph unicode="&#xe1;" horiz-adv-x="1038" d="M55 227q0 129 95.5 191.5t248.5 93.5l248 49v21q0 76 -40 118.5t-118 42.5q-76 0 -119.5 -42t-58.5 -107l-223 20q23 137 128.5 225.5t283.5 88.5q174 0 280.5 -85t106.5 -263v-361q0 -35 17.5 -52t45.5 -17q18 0 37 5t39 13v-131q-29 -23 -68.5 -40t-101.5 -17 q-76 0 -125 41.5t-65 115.5q-39 -78 -123 -119t-185 -41q-141 0 -222 67t-81 183zM295 246q0 -45 33.5 -72t91.5 -27q96 0 161.5 67.5t65.5 176.5v23l-170 -37q-80 -16 -131 -40t-51 -91zM420 1016l110 274h264l-198 -274h-176z" />
<glyph unicode="&#xe2;" horiz-adv-x="1038" d="M55 227q0 129 95.5 191.5t248.5 93.5l248 49v21q0 76 -40 118.5t-118 42.5q-76 0 -119.5 -42t-58.5 -107l-223 20q23 137 128.5 225.5t283.5 88.5q174 0 280.5 -85t106.5 -263v-361q0 -35 17.5 -52t45.5 -17q18 0 37 5t39 13v-131q-29 -23 -68.5 -40t-101.5 -17 q-76 0 -125 41.5t-65 115.5q-39 -78 -123 -119t-185 -41q-141 0 -222 67t-81 183zM215 1016l170 274h250l170 -274h-164l-131 135l-131 -135h-164zM295 246q0 -45 33.5 -72t91.5 -27q96 0 161.5 67.5t65.5 176.5v23l-170 -37q-80 -16 -131 -40t-51 -91z" />
<glyph unicode="&#xe3;" horiz-adv-x="1038" d="M55 227q0 129 95.5 191.5t248.5 93.5l248 49v21q0 76 -40 118.5t-118 42.5q-76 0 -119.5 -42t-58.5 -107l-223 20q23 137 128.5 225.5t283.5 88.5q174 0 280.5 -85t106.5 -263v-361q0 -35 17.5 -52t45.5 -17q18 0 37 5t39 13v-131q-29 -23 -68.5 -40t-101.5 -17 q-76 0 -125 41.5t-65 115.5q-39 -78 -123 -119t-185 -41q-141 0 -222 67t-81 183zM209 1020q0 119 44 193.5t132 74.5q76 0 128 -49t110 -49q33 0 50 22.5t19 69.5h127q0 -119 -45 -193.5t-133 -74.5q-76 0 -127 49t-109 49q-33 0 -50 -22.5t-19 -69.5h-127zM295 246 q0 -45 33.5 -72t91.5 -27q96 0 161.5 67.5t65.5 176.5v23l-170 -37q-80 -16 -131 -40t-51 -91z" />
<glyph unicode="&#xe4;" horiz-adv-x="1038" d="M55 227q0 129 95.5 191.5t248.5 93.5l248 49v21q0 76 -40 118.5t-118 42.5q-76 0 -119.5 -42t-58.5 -107l-223 20q23 137 128.5 225.5t283.5 88.5q174 0 280.5 -85t106.5 -263v-361q0 -35 17.5 -52t45.5 -17q18 0 37 5t39 13v-131q-29 -23 -68.5 -40t-101.5 -17 q-76 0 -125 41.5t-65 115.5q-39 -78 -123 -119t-185 -41q-141 0 -222 67t-81 183zM231 1042v240h226v-240h-226zM295 246q0 -45 33.5 -72t91.5 -27q96 0 161.5 67.5t65.5 176.5v23l-170 -37q-80 -16 -131 -40t-51 -91zM563 1042v240h223v-240h-223z" />
<glyph unicode="&#xe5;" horiz-adv-x="1038" d="M55 227q0 129 95.5 191.5t248.5 93.5l248 49v21q0 76 -40 118.5t-118 42.5q-76 0 -119.5 -42t-58.5 -107l-223 20q23 137 128.5 225.5t283.5 88.5q174 0 280.5 -85t106.5 -263v-361q0 -35 17.5 -52t45.5 -17q18 0 37 5t39 13v-131q-29 -23 -68.5 -40t-101.5 -17 q-76 0 -125 41.5t-65 115.5q-39 -78 -123 -119t-185 -41q-141 0 -222 67t-81 183zM295 246q0 -45 33.5 -72t91.5 -27q96 0 161.5 67.5t65.5 176.5v23l-170 -37q-80 -16 -131 -40t-51 -91zM320 1176q0 78 52 130t138 52t138 -52.5t52 -129.5q0 -78 -52 -130.5t-138 -52.5 t-138 52.5t-52 130.5zM430 1176q0 -35 20.5 -57.5t59.5 -22.5t59.5 22.5t20.5 57.5t-20.5 57t-59.5 22t-59.5 -22t-20.5 -57z" />
<glyph unicode="&#xe6;" horiz-adv-x="1593" d="M55 238q0 141 115 223t342 82h147v26q0 82 -46 128t-124 46q-76 0 -124 -39.5t-62 -103.5l-213 18q25 137 131 223.5t260 86.5q104 0 179 -35t118 -105q51 63 136 101.5t180 38.5q219 0 332.5 -133t113.5 -318v-86h-682q12 -113 85 -171t165 -58q90 0 146.5 40t82.5 120 l199 -21q-33 -154 -148.5 -240t-287.5 -86q-129 0 -220.5 50.5t-148.5 140.5q-45 -76 -125 -132.5t-227 -56.5q-156 0 -240 74t-84 187zM295 258q0 -49 33.5 -83t99.5 -34q92 0 161.5 63.5t69.5 174.5v12h-135q-125 0 -177 -31.5t-52 -101.5zM862 543h438q-8 80 -57 142.5 t-151 62.5q-88 0 -148.5 -54.5t-81.5 -150.5z" />
<glyph unicode="&#xe7;" horiz-adv-x="1011" d="M51 451q0 213 135.5 345t341.5 132q201 0 311.5 -116t125.5 -277l-207 -15q-14 100 -71.5 159.5t-158.5 59.5q-100 0 -164.5 -73.5t-64.5 -214.5q0 -139 64.5 -213t164.5 -74t157.5 60.5t72.5 162.5l207 -18q-14 -162 -125 -279q-100 -104 -277 -113l-45 -61 q88 20 161 -10.5t73 -114.5q0 -82 -74 -115.5t-162 -33.5q-76 0 -136.5 23.5t-92.5 49.5l35 72q33 -23 78.5 -39t99.5 -16q41 0 66.5 12t25.5 39q0 51 -56.5 54t-101.5 -17l-53 22l94 135q-172 16 -289 129q-135 131 -135 345z" />
<glyph unicode="&#xe8;" d="M51 438q0 213 135.5 351.5t337.5 138.5q219 0 333 -133t114 -318v-88h-678q6 -100 75.5 -163.5t170.5 -63.5q90 0 145 38.5t82 114.5l199 -20q-35 -150 -149 -235t-286 -85q-207 0 -343 125t-136 338zM252 1290h264l110 -274h-176zM297 543h434q-6 78 -56 141.5 t-153 63.5q-100 0 -154.5 -60.5t-70.5 -144.5z" />
<glyph unicode="&#xe9;" d="M51 438q0 213 135.5 351.5t337.5 138.5q219 0 333 -133t114 -318v-88h-678q6 -100 75.5 -163.5t170.5 -63.5q90 0 145 38.5t82 114.5l199 -20q-35 -150 -149 -235t-286 -85q-207 0 -343 125t-136 338zM297 543h434q-6 78 -56 141.5t-153 63.5q-100 0 -154.5 -60.5 t-70.5 -144.5zM435 1016l110 274h264l-198 -274h-176z" />
<glyph unicode="&#xea;" d="M51 438q0 213 135.5 351.5t337.5 138.5q219 0 333 -133t114 -318v-88h-678q6 -100 75.5 -163.5t170.5 -63.5q90 0 145 38.5t82 114.5l199 -20q-35 -150 -149 -235t-286 -85q-207 0 -343 125t-136 338zM231 1016l170 274h250l170 -274h-164l-131 135l-131 -135h-164z M297 543h434q-6 78 -56 141.5t-153 63.5q-100 0 -154.5 -60.5t-70.5 -144.5z" />
<glyph unicode="&#xeb;" d="M51 438q0 213 135.5 351.5t337.5 138.5q219 0 333 -133t114 -318v-88h-678q6 -100 75.5 -163.5t170.5 -63.5q90 0 145 38.5t82 114.5l199 -20q-35 -150 -149 -235t-286 -85q-207 0 -343 125t-136 338zM249 1042v240h226v-240h-226zM297 543h434q-6 78 -56 141.5 t-153 63.5q-100 0 -154.5 -60.5t-70.5 -144.5zM581 1042v240h223v-240h-223z" />
<glyph unicode="&#xec;" horiz-adv-x="452" d="M-51 1290h264l110 -274h-176zM104 0v903h246v-903h-246z" />
<glyph unicode="&#xed;" horiz-adv-x="452" d="M104 0v903h246v-903h-246zM138 1016l110 274h264l-198 -274h-176z" />
<glyph unicode="&#xee;" horiz-adv-x="452" d="M-70 1016l170 274h250l170 -274h-164l-131 135l-131 -135h-164zM104 0v903h246v-903h-246z" />
<glyph unicode="&#xef;" horiz-adv-x="452" d="M-52 1042v240h226v-240h-226zM104 0v903h246v-903h-246zM280 1042v240h223v-240h-223z" />
<glyph unicode="&#xf0;" horiz-adv-x="1048" d="M49 436q0 209 133 325t310 116q76 0 141 -31t110 -88q-23 57 -79 124.5t-132 133.5l-278 -94l-45 114l209 70q-43 33 -89 62.5t-93 56.5l198 90q57 -31 109.5 -63.5t97.5 -69.5l178 59l47 -113l-121 -41q123 -123 187.5 -277.5t64.5 -330.5q0 -240 -131 -372t-340 -132 q-207 0 -342 124t-135 337zM299 434q0 -117 60.5 -192.5t166.5 -75.5q109 0 169.5 75.5t60.5 192.5t-60.5 194t-169.5 77q-106 0 -166.5 -77t-60.5 -194z" />
<glyph unicode="&#xf1;" horiz-adv-x="1067" d="M104 0v903h246v-147q33 76 114 124t181 48q180 0 255 -107.5t75 -257.5v-563h-246v514q0 104 -43 161.5t-133 57.5q-94 0 -148.5 -68.5t-54.5 -181.5v-483h-246zM248 1020q0 119 44 193.5t132 74.5q76 0 128 -49t110 -49q33 0 50 22.5t19 69.5h127q0 -119 -45 -193.5 t-133 -74.5q-76 0 -127 49t-109 49q-33 0 -50 -22.5t-19 -69.5h-127z" />
<glyph unicode="&#xf2;" horiz-adv-x="1054" d="M51 451q0 209 134 343t341 134q209 0 343.5 -134t134.5 -343t-134.5 -342.5t-343.5 -133.5q-207 0 -341 133.5t-134 342.5zM250 1290h264l110 -274h-176zM299 451q0 -127 58.5 -208t168.5 -81q113 0 171.5 81t58.5 208q0 129 -58.5 209.5t-171.5 80.5q-111 0 -169 -80.5 t-58 -209.5z" />
<glyph unicode="&#xf3;" horiz-adv-x="1054" d="M51 451q0 209 134 343t341 134q209 0 343.5 -134t134.5 -343t-134.5 -342.5t-343.5 -133.5q-207 0 -341 133.5t-134 342.5zM299 451q0 -127 58.5 -208t168.5 -81q113 0 171.5 81t58.5 208q0 129 -58.5 209.5t-171.5 80.5q-111 0 -169 -80.5t-58 -209.5zM439 1016l110 274 h264l-198 -274h-176z" />
<glyph unicode="&#xf4;" horiz-adv-x="1054" d="M51 451q0 209 134 343t341 134q209 0 343.5 -134t134.5 -343t-134.5 -342.5t-343.5 -133.5q-207 0 -341 133.5t-134 342.5zM231 1016l170 274h250l170 -274h-164l-131 135l-131 -135h-164zM299 451q0 -127 58.5 -208t168.5 -81q113 0 171.5 81t58.5 208 q0 129 -58.5 209.5t-171.5 80.5q-111 0 -169 -80.5t-58 -209.5z" />
<glyph unicode="&#xf5;" horiz-adv-x="1054" d="M51 451q0 209 134 343t341 134q209 0 343.5 -134t134.5 -343t-134.5 -342.5t-343.5 -133.5q-207 0 -341 133.5t-134 342.5zM230 1020q0 119 44 193.5t132 74.5q76 0 128 -49t110 -49q33 0 50 22.5t19 69.5h127q0 -119 -45 -193.5t-133 -74.5q-76 0 -127 49t-109 49 q-33 0 -50 -22.5t-19 -69.5h-127zM299 451q0 -127 58.5 -208t168.5 -81q113 0 171.5 81t58.5 208q0 129 -58.5 209.5t-171.5 80.5q-111 0 -169 -80.5t-58 -209.5z" />
<glyph unicode="&#xf6;" horiz-adv-x="1054" d="M51 451q0 209 134 343t341 134q209 0 343.5 -134t134.5 -343t-134.5 -342.5t-343.5 -133.5q-207 0 -341 133.5t-134 342.5zM249 1042v240h226v-240h-226zM299 451q0 -127 58.5 -208t168.5 -81q113 0 171.5 81t58.5 208q0 129 -58.5 209.5t-171.5 80.5q-111 0 -169 -80.5 t-58 -209.5zM581 1042v240h223v-240h-223z" />
<glyph unicode="&#xf7;" horiz-adv-x="1259" d="M98 535v204h1063v-204h-1063zM492 74v264h278v-264h-278zM492 936v266h278v-266h-278z" />
<glyph unicode="&#xf8;" horiz-adv-x="1054" d="M51 451q0 209 134 343t341 134q76 0 142.5 -18.5t122.5 -51.5l94 113l96 -76l-96 -115q57 -63 88 -146t31 -183q0 -209 -134.5 -342.5t-343.5 -133.5q-74 0 -140.5 18.5t-119.5 51.5l-96 -115l-94 78l96 113q-57 63 -89 146t-32 184zM285 451q0 -45 8 -85t22 -73l344 412 q-27 16 -60.5 26t-72.5 10q-117 0 -179 -80.5t-62 -209.5zM395 199q27 -18 59.5 -27.5t71.5 -9.5q117 0 180.5 81t63.5 208q0 45 -8 84.5t-23 72.5z" />
<glyph unicode="&#xf9;" horiz-adv-x="1056" d="M94 338v565h246v-516q0 -102 41 -160.5t131 -58.5t142.5 68.5t52.5 183.5v483h245v-903h-245v147q-35 -78 -112 -125t-179 -47q-178 0 -250 106.5t-72 256.5zM248 1290h264l110 -274h-176z" />
<glyph unicode="&#xfa;" horiz-adv-x="1056" d="M94 338v565h246v-516q0 -102 41 -160.5t131 -58.5t142.5 68.5t52.5 183.5v483h245v-903h-245v147q-35 -78 -112 -125t-179 -47q-178 0 -250 106.5t-72 256.5zM437 1016l110 274h264l-198 -274h-176z" />
<glyph unicode="&#xfb;" horiz-adv-x="1056" d="M94 338v565h246v-516q0 -102 41 -160.5t131 -58.5t142.5 68.5t52.5 183.5v483h245v-903h-245v147q-35 -78 -112 -125t-179 -47q-178 0 -250 106.5t-72 256.5zM229 1016l170 274h250l170 -274h-164l-131 135l-131 -135h-164z" />
<glyph unicode="&#xfc;" horiz-adv-x="1056" d="M94 338v565h246v-516q0 -102 41 -160.5t131 -58.5t142.5 68.5t52.5 183.5v483h245v-903h-245v147q-35 -78 -112 -125t-179 -47q-178 0 -250 106.5t-72 256.5zM247 1042v240h226v-240h-226zM579 1042v240h223v-240h-223z" />
<glyph unicode="&#xfd;" horiz-adv-x="1007" d="M6 903h258l246 -616h8l244 616h239l-518 -1239h-241l139 332zM414 1016l110 274h264l-198 -274h-176z" />
<glyph unicode="&#xfe;" horiz-adv-x="1120" d="M104 -336v1626h246v-561q31 82 111 140.5t201 58.5q199 0 303 -139.5t104 -337.5q0 -199 -104.5 -337.5t-302.5 -138.5q-121 0 -201 57.5t-111 139.5v-508h-246zM348 434q0 -123 66.5 -194.5t171.5 -71.5q117 0 176 78t59 205q0 129 -59.5 206.5t-175.5 77.5 q-104 0 -171 -71.5t-67 -194.5v-35z" />
<glyph unicode="&#xff;" horiz-adv-x="1007" d="M6 903h258l246 -616h8l244 616h239l-518 -1239h-241l139 332zM225 1042v240h226v-240h-226zM557 1042v240h223v-240h-223z" />
<glyph unicode="&#x152;" horiz-adv-x="1957" d="M53 645q0 301 183.5 473t492.5 172h1143v-213h-696v-313h546v-211h-546v-340h714v-213h-1161q-309 0 -492.5 172t-183.5 473zM319 643q0 -205 112 -321.5t314 -116.5h181v880h-181q-203 0 -314.5 -117.5t-111.5 -324.5z" />
<glyph unicode="&#x153;" horiz-adv-x="1720" d="M51 451q0 209 134 343t341 134q111 0 200 -42t153 -114q63 72 150 114t192 42q219 0 332.5 -133t113.5 -318v-88h-680q8 -102 78 -164.5t168 -62.5q90 0 147.5 37t81.5 116l199 -20q-35 -150 -148.5 -235t-285.5 -85q-111 0 -202 41t-153 111q-61 -68 -145 -110t-201 -42 q-207 0 -341 133.5t-134 342.5zM299 451q0 -127 58.5 -208t168.5 -81q113 0 171.5 81t58.5 208q0 129 -58.5 209.5t-171.5 80.5q-111 0 -169 -80.5t-58 -209.5zM993 543h434q-4 80 -56 142.5t-152 62.5q-102 0 -158 -63.5t-68 -141.5z" />
<glyph unicode="&#x178;" horiz-adv-x="1273" d="M12 1290h285l350 -547l338 547h277l-500 -792v-498h-250v498zM358 1382v238h226v-238h-226zM690 1382v238h223v-238h-223z" />
<glyph unicode="&#x2c6;" d="M217 1016l170 274h250l170 -274h-164l-131 135l-131 -135h-164z" />
<glyph unicode="&#x2dc;" d="M207 1020q0 119 44 193.5t132 74.5q76 0 128 -49t110 -49q33 0 50 22.5t19 69.5h127q0 -119 -45 -193.5t-133 -74.5q-76 0 -127 49t-109 49q-33 0 -50 -22.5t-19 -69.5h-127z" />
<glyph unicode="&#x2000;" horiz-adv-x="859" />
<glyph unicode="&#x2001;" horiz-adv-x="1718" />
<glyph unicode="&#x2002;" horiz-adv-x="859" />
<glyph unicode="&#x2003;" horiz-adv-x="1718" />
<glyph unicode="&#x2004;" horiz-adv-x="572" />
<glyph unicode="&#x2005;" horiz-adv-x="429" />
<glyph unicode="&#x2006;" horiz-adv-x="286" />
<glyph unicode="&#x2007;" horiz-adv-x="286" />
<glyph unicode="&#x2008;" horiz-adv-x="214" />
<glyph unicode="&#x2009;" horiz-adv-x="343" />
<glyph unicode="&#x200a;" horiz-adv-x="95" />
<glyph unicode="&#x2010;" horiz-adv-x="720" d="M106 416v215h508v-215h-508z" />
<glyph unicode="&#x2011;" horiz-adv-x="720" d="M106 416v215h508v-215h-508z" />
<glyph unicode="&#x2012;" horiz-adv-x="720" d="M106 416v215h508v-215h-508z" />
<glyph unicode="&#x2013;" d="M106 438v168h809v-168h-809z" />
<glyph unicode="&#x2014;" horiz-adv-x="2048" d="M106 438v168h1836v-168h-1836z" />
<glyph unicode="&#x2018;" horiz-adv-x="409" d="M70 809v235q0 127 62.5 190.5t207.5 65.5v-126q-66 -2 -94.5 -28t-30.5 -89h125v-248h-270z" />
<glyph unicode="&#x2019;" horiz-adv-x="409" d="M70 799v127q66 2 94.5 27.5t30.5 88.5h-125v248h270v-235q0 -127 -62.5 -190.5t-207.5 -65.5z" />
<glyph unicode="&#x201a;" horiz-adv-x="409" d="M70 0v248h270v-238q0 -127 -62.5 -189.5t-207.5 -64.5v125q66 4 94.5 30t30.5 89h-125z" />
<glyph unicode="&#x201c;" horiz-adv-x="776" d="M70 809v235q0 127 62.5 190.5t207.5 65.5v-126q-66 -2 -94.5 -28t-30.5 -89h125v-248h-270zM436 809v235q0 127 62.5 190.5t206.5 65.5v-126q-63 -2 -93 -28t-30 -89h123v-248h-269z" />
<glyph unicode="&#x201d;" horiz-adv-x="776" d="M70 799v127q66 2 94.5 27.5t30.5 88.5h-125v248h270v-235q0 -127 -62.5 -190.5t-207.5 -65.5zM436 799v127q66 2 94.5 27.5t30.5 88.5h-125v248h269v-235q0 -127 -61.5 -190.5t-207.5 -65.5z" />
<glyph unicode="&#x201e;" horiz-adv-x="776" d="M70 0v248h270v-238q0 -127 -62.5 -189.5t-207.5 -64.5v125q66 4 94.5 30t30.5 89h-125zM436 0v248h269v-238q0 -127 -61.5 -189.5t-207.5 -64.5v125q66 4 94.5 30t30.5 89h-125z" />
<glyph unicode="&#x2022;" horiz-adv-x="747" d="M78 526q0 129 86 212t209 83t209 -83t86 -212t-86 -211t-209 -82t-209 82t-86 211z" />
<glyph unicode="&#x2026;" horiz-adv-x="1241" d="M70 0v274h274v-274h-274zM483 0v274h275v-274h-275zM897 0v274h274v-274h-274z" />
<glyph unicode="&#x202f;" horiz-adv-x="343" />
<glyph unicode="&#x2039;" horiz-adv-x="505" d="M78 350v209l350 260v-219l-195 -145l195 -148v-217z" />
<glyph unicode="&#x203a;" horiz-adv-x="505" d="M78 90v217l194 148l-194 145v219l350 -260v-209z" />
<glyph unicode="&#x205f;" horiz-adv-x="429" />
<glyph unicode="&#x20ac;" horiz-adv-x="1282" d="M31 444v136h112q-2 14 -2 31.5v33.5v28.5t2 28.5h-112v136h127q43 221 185 349t359 128q244 0 377 -157t144 -388l-236 -10q-8 137 -78.5 236.5t-206.5 99.5q-117 0 -188.5 -67.5t-99.5 -190.5h344l-21 -136h-340q-2 -14 -2 -28.5v-28.5v-33.5t2 -31.5h322l-21 -136h-282 q29 -119 100.5 -184t185.5 -65q135 0 206 92t79 243l236 -10q-8 -236 -145.5 -390.5t-375.5 -154.5q-215 0 -356 125t-186 344h-129z" />
<glyph unicode="&#x2122;" horiz-adv-x="1339" d="M41 1167v123h504v-123h-183v-409h-143v409h-178zM602 758v532h207l92 -356h4l92 356h199v-532h-141v372h-4l-103 -372h-104l-105 372h-4v-372h-133z" />
<glyph unicode="&#x25fc;" horiz-adv-x="901" d="M0 0v901h901v-901h-901z" />
</font>
</defs>
</svg>
