<?xml version="1.0" standalone="no"?>
<!DOCTYPE svg PUBLIC "-//W3C//DTD SVG 1.1//EN" "http://www.w3.org/Graphics/SVG/1.1/DTD/svg11.dtd" >
<svg xmlns="http://www.w3.org/2000/svg">
<metadata></metadata>
<defs>
<font id="webfontregular" horiz-adv-x="1001" >
<font-face units-per-em="2048" ascent="1638" descent="-410" />
<missing-glyph horiz-adv-x="368" />
<glyph unicode="&#xfb01;" horiz-adv-x="976" d="M14 772v123h138v63q0 162 91 259.5t255 97.5q133 0 209.5 -55.5t115.5 -163.5l-137 -47q-18 57 -63 96t-119 39q-84 0 -134.5 -53.5t-50.5 -155.5v-80h543v-895h-170v772h-373v-772h-167v772h-138z" />
<glyph unicode="&#xfb02;" horiz-adv-x="976" d="M14 772v123h138v113q0 141 74.5 224t207.5 83q55 0 101 -14t81 -37l-38 -117q-27 18 -55.5 28.5t-63.5 10.5q-72 0 -106 -47t-34 -127v-117h240v-123h-240v-772h-167v772h-138zM692 0v1290h170v-1290h-170z" />
<glyph unicode="&#xfb03;" horiz-adv-x="1517" d="M14 772v123h138v96q0 139 78.5 221t207.5 82q78 0 129 -20.5t88 -44.5l-45 -113q-33 23 -69.5 37t-79.5 14q-72 0 -107 -46t-35 -128v-98h373v63q0 162 91 259.5t255 97.5q133 0 210 -55.5t116 -163.5l-135 -47q-20 57 -65.5 96t-119.5 39q-84 0 -134 -53.5t-50 -155.5 v-80h543v-895h-170v772h-373v-772h-168v772h-373v-772h-167v772h-138z" />
<glyph unicode="&#xfb04;" horiz-adv-x="1517" d="M14 772v123h138v96q0 139 78.5 221t207.5 82q78 0 129 -20.5t88 -44.5l-45 -113q-33 23 -69.5 37t-79.5 14q-72 0 -107 -46t-35 -128v-98h373v113q0 141 76 224t207 83q55 0 101 -14.5t81 -36.5l-39 -117q-27 18 -55.5 28.5t-63.5 10.5q-72 0 -105.5 -47t-33.5 -127v-117 h240v-123h-240v-772h-168v772h-373v-772h-167v772h-138zM1233 0v1290h170v-1290h-170z" />
<glyph horiz-adv-x="0" />
<glyph unicode="&#xd;" horiz-adv-x="452" />
<glyph horiz-adv-x="0" />
<glyph horiz-adv-x="0" />
<glyph unicode=" "  horiz-adv-x="368" />
<glyph unicode="&#x09;" horiz-adv-x="368" />
<glyph unicode="&#xa0;" horiz-adv-x="368" />
<glyph unicode="!" horiz-adv-x="391" d="M94 0v205h205v-205h-205zM104 930v360h183v-360l-49 -592h-82z" />
<glyph unicode="&#x22;" horiz-adv-x="591" d="M94 834v456h146v-456h-146zM352 834v456h146v-456h-146z" />
<glyph unicode="#" horiz-adv-x="1245" d="M41 342l22 119h222l86 368h-244l23 121h249l82 340h144l-82 -340h303l82 340h145l-82 -340h213l-22 -121h-219l-86 -368h241l-22 -119h-248l-82 -342h-145l81 342h-303l-82 -342h-143l82 342h-215zM428 461h303l86 368h-303z" />
<glyph unicode="$" horiz-adv-x="1134" d="M45 461l158 10q6 -154 92 -244t215 -110v461l-109 20q-141 27 -230 111t-89 233q0 164 114.5 265.5t313.5 107.5v178h115v-184q195 -23 303 -141.5t110 -315.5l-157 -8q-4 135 -72 219t-184 108v-454l88 -17q174 -33 263 -114.5t89 -235.5q0 -170 -125 -268t-315 -107 v-184h-115v189q-203 20 -334 144t-131 337zM248 952q0 -96 62 -141.5t173 -65.5l27 -6v441q-127 -4 -194.5 -63.5t-67.5 -164.5zM625 113q123 8 197.5 66.5t74.5 158.5q0 88 -59.5 137t-182.5 74l-30 6v-442z" />
<glyph unicode="%" horiz-adv-x="1499" d="M57 975q0 160 88 250t213 90q127 0 215.5 -90t88.5 -250t-88.5 -250t-215.5 -90q-125 0 -213 90t-88 250zM203 975q0 -121 43 -174t112 -53q72 0 115 53t43 174t-43 174t-115 53q-70 0 -112.5 -53t-42.5 -174zM350 0l662 1290h137l-660 -1290h-139zM838 315q0 160 89 250 t214 90t214 -90t89 -250t-89 -250t-214 -90t-214 90.5t-89 249.5zM985 315q0 -121 43 -174t113 -53t112.5 53t42.5 174t-43 174.5t-112 53.5q-70 0 -113 -53.5t-43 -174.5z" />
<glyph unicode="&#x26;" horiz-adv-x="1273" d="M55 330q0 129 76 215t203 155q-57 70 -96 139.5t-39 157.5q0 141 97 229.5t247 88.5q154 0 236.5 -82t82.5 -205t-76.5 -199.5t-218.5 -150.5l316 -350q51 68 89 150.5t58 174.5l148 -8q-29 -115 -81.5 -222.5t-123.5 -195.5q45 -51 91 -80.5t105 -29.5q23 0 47.5 2 t53.5 10v-111q-27 -16 -64 -25t-76 -9q-68 0 -128 29.5t-138 105.5q-82 -66 -180 -105t-209 -39q-176 0 -298 94.5t-122 260.5zM227 334q0 -100 73 -160.5t179 -60.5q82 0 157 27.5t136 74.5l-4 6l-348 383q-90 -47 -141.5 -107.5t-51.5 -162.5zM360 999q0 -66 37 -119 t86 -108q127 59 177.5 112.5t50.5 139.5q0 63 -41 113.5t-127 50.5q-76 0 -129.5 -47.5t-53.5 -141.5z" />
<glyph unicode="'" horiz-adv-x="337" d="M94 834v456h150v-456h-150z" />
<glyph unicode="(" horiz-adv-x="591" d="M84 590q0 207 74.5 410.5t210.5 351.5h170q-160 -182 -218.5 -375t-58.5 -387q0 -195 58.5 -387.5t218.5 -374.5h-170q-135 147 -210 351t-75 411z" />
<glyph unicode=")" horiz-adv-x="591" d="M53 -172q160 182 218.5 374.5t58.5 387.5t-58.5 387t-218.5 375h170q135 -147 210 -351t75 -411t-75 -411t-210 -351h-170z" />
<glyph unicode="*" horiz-adv-x="733" d="M29 1020l39 113l239 -84v260h119v-258l244 84l37 -113l-246 -78l153 -207l-96 -69l-149 204l-150 -208l-94 73l149 203z" />
<glyph unicode="+" horiz-adv-x="1265" d="M111 567v144h450v452h144v-452h452v-144h-452v-452h-144v452h-450z" />
<glyph unicode="," horiz-adv-x="360" d="M78 0v205h205v-201q0 -106 -41 -166.5t-164 -62.5v100q57 4 76.5 30.5t19.5 94.5h-96z" />
<glyph unicode="-" horiz-adv-x="704" d="M117 446v152h471v-152h-471z" />
<glyph unicode="." horiz-adv-x="360" d="M78 0v205h205v-205h-205z" />
<glyph unicode="/" horiz-adv-x="649" d="M-41 -170l524 1520h160l-522 -1520h-162z" />
<glyph unicode="0" horiz-adv-x="1204" d="M68 645q0 319 141 494.5t393 175.5t394.5 -175.5t142.5 -494.5t-142.5 -494.5t-394.5 -175.5t-393 175.5t-141 494.5zM252 645q0 -262 86 -394t264 -132t264 132t86 394t-86 394t-264 132t-264 -132t-86 -394z" />
<glyph unicode="1" horiz-adv-x="591" d="M20 987v115q135 0 202 48t102 148h116v-1298h-178v987h-242z" />
<glyph unicode="2" horiz-adv-x="1034" d="M53 0v102l365 314q152 131 253 242.5t101 252.5q0 113 -64.5 185.5t-191.5 72.5q-131 0 -202.5 -79.5t-71.5 -221.5q0 -29 3 -58.5t11 -57.5l-176 8q-6 31 -10 61.5t-4 59.5q0 197 123.5 315.5t328.5 118.5q225 0 331.5 -116t106.5 -279q0 -174 -122.5 -312.5 t-262.5 -253.5l-243 -200h673v-154h-948z" />
<glyph unicode="3" horiz-adv-x="1056" d="M45 436l174 -8q2 -154 90 -231.5t234 -77.5q125 0 204.5 60t79.5 175q0 111 -81.5 169.5t-202.5 58.5q-39 0 -70 -2t-53 -5v146q20 -2 50 -4t73 -2q100 0 180 49t80 172q0 104 -67.5 169.5t-200.5 65.5q-135 0 -215 -85t-80 -238l-172 6q0 199 125.5 330t343.5 131 q213 0 327.5 -101.5t114.5 -263.5q0 -123 -78 -203.5t-172 -95.5q117 -16 197 -100t80 -209q0 -160 -126 -263.5t-339 -103.5q-229 0 -362.5 124t-133.5 337z" />
<glyph unicode="4" horiz-adv-x="1120" d="M33 344v168l637 778h215v-801h221v-145h-221v-344h-174v344h-678zM186 489h525v641z" />
<glyph unicode="5" horiz-adv-x="1075" d="M86 457l172 -15q0 -145 78 -235t229 -90q135 0 214 84t79 225q0 127 -79 211t-214 84q-106 0 -177 -49t-105 -115l-177 12q25 133 51.5 347t30.5 374h756v-160h-618q-2 -51 -19.5 -200.5t-27.5 -198.5q45 53 122.5 92t184.5 39q219 0 331.5 -128t112.5 -306 q0 -201 -130 -327t-339 -126q-231 0 -358 134.5t-117 347.5z" />
<glyph unicode="6" horiz-adv-x="1122" d="M68 621q0 301 131 497.5t401 196.5q190 0 312 -104.5t139 -284.5l-170 -6q-16 113 -85 183.5t-198 70.5q-197 0 -286 -163t-87 -415q33 111 131.5 187.5t253.5 76.5q207 0 330 -123t123 -313q0 -199 -128 -324t-343 -125q-256 0 -390 175.5t-134 470.5zM276 418 q0 -133 85 -216t229 -83q141 0 222 82t81 217t-81 218t-228 83q-145 0 -226.5 -83t-81.5 -218z" />
<glyph unicode="7" horiz-adv-x="987" d="M39 1130v160h909v-108q-240 -250 -334 -552t-96 -630h-192q4 340 116.5 633.5t305.5 496.5h-709z" />
<glyph unicode="8" horiz-adv-x="1079" d="M51 342q0 125 81 207t185 102q-100 37 -159.5 115t-59.5 190q0 166 126 262.5t317 96.5q188 0 314 -96.5t126 -262.5q0 -113 -59.5 -190.5t-159.5 -114.5q104 -20 184 -102t80 -207q0 -168 -130 -267.5t-355 -99.5q-227 0 -358.5 99.5t-131.5 267.5zM236 350 q0 -113 78.5 -177t226.5 -64q145 0 224 64.5t79 176.5q0 113 -79 172.5t-224 59.5q-147 0 -226 -59.5t-79 -172.5zM272 944q0 -111 75 -170t194 -59q117 0 192.5 59.5t75.5 169.5q0 119 -75.5 179.5t-192.5 60.5q-119 0 -194 -60.5t-75 -179.5z" />
<glyph unicode="9" horiz-adv-x="1122" d="M59 866q0 199 128 324t343 125q256 0 390.5 -175t134.5 -470q0 -301 -131 -498t-402 -197q-190 0 -312 104.5t-138 285.5l170 6q16 -113 84.5 -183.5t197.5 -70.5q197 0 286 162.5t87 414.5q-33 -111 -131 -187.5t-254 -76.5q-207 0 -330 123t-123 313zM229 872 q0 -135 81 -218t229 -83q145 0 226 83t81 218q0 133 -85 216t-229 83q-141 0 -222 -81.5t-81 -217.5z" />
<glyph unicode=":" horiz-adv-x="360" d="M78 0v205h205v-205h-205zM78 649v205h205v-205h-205z" />
<glyph unicode=";" horiz-adv-x="360" d="M78 0v205h205v-201q0 -106 -41 -166.5t-164 -62.5v100q57 4 76.5 30.5t19.5 94.5h-96zM78 649v205h205v-205h-205z" />
<glyph unicode="&#x3c;" horiz-adv-x="948" d="M82 543v184l799 426v-166l-668 -352l668 -352v-168z" />
<glyph unicode="=" horiz-adv-x="1294" d="M123 401v140h1048v-140h-1048zM123 731v139h1048v-139h-1048z" />
<glyph unicode="&#x3e;" horiz-adv-x="948" d="M68 115v168l665 352l-665 352v166l796 -426v-184z" />
<glyph unicode="?" horiz-adv-x="999" d="M57 881q0 197 123 315.5t328 118.5q225 0 329.5 -115t104.5 -268q0 -133 -81 -224.5t-189 -179.5q-57 -45 -81 -85t-26 -99h-159q0 88 33.5 152.5t115.5 130.5q72 57 137.5 122.5t65.5 178.5q0 100 -62.5 170.5t-187.5 70.5q-133 0 -205 -79.5t-72 -221.5 q0 -29 3.5 -58.5t11.5 -57.5l-176 8q-6 31 -9.5 61.5t-3.5 59.5zM377 0v205h205v-205h-205z" />
<glyph unicode="@" horiz-adv-x="1556" d="M68 387q0 328 214 551t566 223q305 0 478 -171t173 -429q0 -250 -118.5 -370.5t-266.5 -120.5q-86 0 -136 42t-65 103q-37 -66 -101 -105.5t-150 -39.5q-117 0 -190 75.5t-73 210.5q0 164 101.5 305.5t279.5 141.5q84 0 143.5 -37t80.5 -92l30 112h152l-123 -485 q-16 -68 5.5 -93.5t68.5 -25.5q98 0 165.5 91.5t67.5 287.5q0 213 -137 350.5t-385 137.5q-293 0 -472 -186.5t-179 -479.5q0 -262 171 -410.5t416 -148.5q117 0 217.5 20.5t204.5 71.5l45 -88q-102 -61 -220 -89t-249 -28q-299 0 -506.5 176t-207.5 500zM561 358 q0 -82 34 -123.5t103 -41.5q74 0 141.5 55t96.5 166l12 49q23 100 -18 163.5t-129 63.5q-111 0 -175.5 -106.5t-64.5 -225.5z" />
<glyph unicode="A" horiz-adv-x="1306" d="M25 0l526 1290h194l537 -1290h-188l-156 379h-588l-151 -379h-174zM408 520h473l-236 574h-8z" />
<glyph unicode="B" horiz-adv-x="1210" d="M125 0v1290h526q238 0 344.5 -95t106.5 -249q0 -111 -71 -184.5t-173 -91.5q117 -20 199 -99t82 -217q0 -166 -120 -260t-345 -94h-549zM297 145h373q143 0 218 59.5t75 164.5q0 104 -75 165.5t-218 61.5h-373v-451zM297 733h360q139 0 203 55.5t64 149.5 q0 92 -63.5 149.5t-203.5 57.5h-360v-412z" />
<glyph unicode="C" horiz-adv-x="1363" d="M66 645q0 297 183 483.5t449 186.5q274 0 429 -155.5t173 -403.5l-172 -8q-10 178 -120.5 296.5t-309.5 118.5q-197 0 -323.5 -140t-126.5 -378t127 -378t323 -140q199 0 309.5 119t120.5 297l172 -8q-18 -248 -172.5 -404t-429.5 -156q-266 0 -449 186.5t-183 483.5z " />
<glyph unicode="D" horiz-adv-x="1316" d="M125 0v1290h467q303 0 482 -172t179 -473t-179 -473t-482 -172h-467zM303 145h279q236 0 361.5 133.5t125.5 366.5t-126 366.5t-361 133.5h-279v-1000z" />
<glyph unicode="E" horiz-adv-x="1122" d="M125 0v1290h901v-147h-729v-406h580v-145h-580v-445h747v-147h-919z" />
<glyph unicode="F" horiz-adv-x="1056" d="M125 0v1290h881v-147h-705v-428h553v-148h-553v-567h-176z" />
<glyph unicode="G" horiz-adv-x="1409" d="M66 645q0 297 182 483.5t448 186.5q272 0 427 -143.5t171 -389.5l-170 -10q-10 176 -120.5 283.5t-305.5 107.5q-197 0 -323.5 -141t-126.5 -379t130 -378t337 -140q180 0 291.5 103.5t128.5 269.5h-394v139h555v-637h-161v229q-43 -123 -167 -188.5t-274 -65.5 q-272 0 -450 185.5t-178 484.5z" />
<glyph unicode="H" horiz-adv-x="1347" d="M125 0v1290h178v-553h741v553h179v-1290h-179v592h-741v-592h-178z" />
<glyph unicode="I" horiz-adv-x="428" d="M125 0v1290h178v-1290h-178z" />
<glyph unicode="J" horiz-adv-x="1044" d="M25 444l168 11q10 -156 84.5 -245t214.5 -89q135 0 202.5 81t67.5 242v846h176v-850q0 -231 -123 -348t-328 -117q-203 0 -328.5 120t-133.5 349z" />
<glyph unicode="K" horiz-adv-x="1196" d="M125 0v1290h178v-637l625 637h211l-555 -567l616 -723h-215l-532 612l-150 -151v-461h-178z" />
<glyph unicode="L" horiz-adv-x="1073" d="M125 0v1290h178v-1143h719v-147h-897z" />
<glyph unicode="M" horiz-adv-x="1527" d="M125 0v1290h285l362 -1050h6l344 1050h281v-1290h-178v1110h-8l-377 -1110h-150l-391 1110h-8v-1110h-166z" />
<glyph unicode="N" horiz-adv-x="1306" d="M125 0v1290h184l707 -987v987h166v-1290h-142l-749 1036v-1036h-166z" />
<glyph unicode="O" horiz-adv-x="1411" d="M66 645q0 297 180 483.5t461 186.5t461 -186.5t180 -483.5t-180.5 -483.5t-460.5 -186.5q-281 0 -461 186.5t-180 483.5zM248 645q0 -236 126 -377t333 -141t331.5 141t124.5 377t-125 377t-331 141q-207 0 -333 -141t-126 -377z" />
<glyph unicode="P" horiz-adv-x="1138" d="M125 0v1290h469q238 0 370 -107.5t132 -295.5q0 -190 -132.5 -298t-369.5 -108h-293v-481h-176zM301 627h289q168 0 251 67.5t83 192.5q0 123 -83 190.5t-251 67.5h-289v-518z" />
<glyph unicode="Q" horiz-adv-x="1411" d="M66 645q0 297 180 483.5t461 186.5t461 -186.5t180 -483.5q0 -141 -43 -259t-121 -206l125 -139l-103 -88l-123 135q-78 -53 -173 -83t-203 -30q-281 0 -461 186.5t-180 483.5zM248 645q0 -236 126 -378t333 -142q82 0 150.5 19.5t121.5 58.5l-150 164l105 90l139 -156 q45 63 67.5 151.5t22.5 192.5q0 236 -125 377t-331 141q-207 0 -333 -141t-126 -377z" />
<glyph unicode="R" horiz-adv-x="1226" d="M125 0v1290h524q244 0 365 -104.5t121 -276.5q0 -147 -88.5 -227t-204.5 -94q117 -23 177 -94.5t68 -184.5q12 -141 22.5 -207.5t43.5 -101.5h-184q-18 27 -31.5 97.5t-22.5 183.5q-6 106 -63 172.5t-188 66.5h-365v-520h-174zM299 662h340q164 0 240.5 61t76.5 180 q0 111 -76.5 176.5t-240.5 65.5h-340v-483z" />
<glyph unicode="S" horiz-adv-x="1148" d="M45 461l160 10q8 -176 117.5 -266t271.5 -90q143 0 228 59t85 164q0 88 -60.5 136t-184.5 73l-256 49q-141 27 -231.5 108.5t-90.5 231.5q0 168 125 273.5t336 105.5q242 0 376 -123t136 -340l-162 -8q-4 160 -96 247t-252 87q-139 0 -215 -62.5t-76 -169.5 q0 -94 61.5 -135t171.5 -61l234 -45q176 -33 265 -117t89 -238q0 -178 -138 -276.5t-345 -98.5q-238 0 -393.5 127.5t-155.5 358.5z" />
<glyph unicode="T" horiz-adv-x="1208" d="M43 1143v147h1122v-147h-477v-1143h-176v1143h-469z" />
<glyph unicode="U" horiz-adv-x="1261" d="M109 494v796h176v-798q0 -184 89 -275.5t257 -91.5t259 91t91 273v801h174v-796q0 -281 -153.5 -400t-370.5 -119t-369.5 119t-152.5 400z" />
<glyph unicode="V" horiz-adv-x="1280" d="M25 1290h182l436 -1085h8l424 1085h180l-520 -1290h-192z" />
<glyph unicode="W" horiz-adv-x="1671" d="M25 1290h172l270 -1069h8l281 1069h166l286 -1073h9l264 1073h166l-330 -1290h-207l-268 1030h-8l-275 -1030h-205z" />
<glyph unicode="X" horiz-adv-x="1245" d="M25 0l497 664l-454 626h208l351 -489l350 489h199l-455 -614l500 -676h-209l-398 535l-391 -535h-198z" />
<glyph unicode="Y" horiz-adv-x="1224" d="M25 1290h194l404 -618l389 618h188l-502 -784v-506h-170v506z" />
<glyph unicode="Z" horiz-adv-x="1146" d="M61 0v125l779 1018h-768v147h993v-131l-778 -1012h798v-147h-1024z" />
<glyph unicode="[" horiz-adv-x="569" d="M135 -172v1524h344v-129h-184v-1266h184v-129h-344z" />
<glyph unicode="\" horiz-adv-x="649" d="M6 1350h162l522 -1520h-160z" />
<glyph unicode="]" horiz-adv-x="569" d="M88 -43h184v1266h-184v129h346v-1524h-346v129z" />
<glyph unicode="^" horiz-adv-x="772" d="M20 877l285 413h160l287 -413h-170l-197 286l-197 -286h-168z" />
<glyph unicode="_" horiz-adv-x="780" d="M41 -113h698v-133h-698v133z" />
<glyph unicode="`" horiz-adv-x="1024" d="M352 1290h207l111 -258h-119z" />
<glyph unicode="a" d="M72 223q0 127 100 188.5t260 94.5l242 49v35q0 92 -51.5 145t-145.5 53q-96 0 -150.5 -51t-74.5 -129l-152 21q27 125 124.5 208t254.5 83q168 0 263.5 -86t95.5 -256v-402q0 -35 18 -52.5t51 -17.5q14 0 37 5.5t41 15.5v-92q-23 -23 -54.5 -38t-82.5 -15q-70 0 -115 48 t-53 128q-37 -78 -125 -130.5t-197 -52.5q-129 0 -207.5 67t-78.5 181zM242 233q0 -57 38.5 -95t114.5 -38q117 0 198 82t81 217v43l-201 -43q-104 -23 -167.5 -53.5t-63.5 -112.5z" />
<glyph unicode="b" horiz-adv-x="1077" d="M117 0v1290h170v-583q29 82 112.5 147.5t208.5 65.5q197 0 303.5 -138.5t106.5 -335.5t-106.5 -334t-305.5 -137q-123 0 -207.5 63.5t-115.5 147.5l-37 -186h-129zM283 422q0 -147 83 -229t203 -82q131 0 202 91t71 244q0 154 -71 245t-202 91q-121 0 -203.5 -82 t-82.5 -227v-51z" />
<glyph unicode="c" horiz-adv-x="997" d="M59 446q0 213 128 343.5t331 130.5q197 0 302.5 -116t119.5 -276l-149 -10q-10 117 -81 190.5t-194 73.5q-125 0 -204 -91t-79 -245t79 -244.5t204 -90.5q123 0 193.5 76.5t81.5 193.5l149 -14q-14 -162 -119.5 -277t-302.5 -115q-203 0 -331 129t-128 342z" />
<glyph unicode="d" horiz-adv-x="1075" d="M59 446q0 197 105.5 335.5t304.5 138.5q125 0 208 -66t114 -147v583h170v-1290h-170v186q-31 -82 -114 -146.5t-208 -64.5q-199 0 -304.5 137.5t-105.5 333.5zM233 446q0 -154 72 -244.5t203 -90.5q121 0 203 82t82 229v51q0 145 -82 227t-203 82q-131 0 -203 -91 t-72 -245z" />
<glyph unicode="e" d="M59 434q0 211 130 348.5t323 137.5q213 0 321.5 -132.5t108.5 -314.5v-67h-713q6 -129 90 -213t203 -84q111 0 179.5 53t95.5 155l141 -16q-33 -152 -142.5 -239t-275.5 -87q-199 0 -330 126t-131 333zM233 516h535q-4 106 -66.5 190.5t-189.5 84.5q-121 0 -193 -82 t-86 -193z" />
<glyph unicode="f" horiz-adv-x="583" d="M14 772v123h138v104q0 141 77.5 228.5t219.5 87.5q115 0 182 -52.5t98 -152.5l-117 -41q-16 51 -55 87t-100 36q-70 0 -104 -47t-34 -127v-123h252v-123h-252v-772h-167v772h-138z" />
<glyph unicode="g" horiz-adv-x="983" d="M16 -127q0 76 51.5 125t133.5 63q-61 20 -90 61.5t-29 92.5q0 57 38 100t97 70q-55 39 -86 97.5t-31 131.5q0 141 105.5 223.5t269.5 82.5q86 0 159 -24t124 -69q35 55 95 89t130 34v-147q-45 0 -92 -10.5t-80 -24.5q20 -33 31.5 -72t11.5 -82q0 -139 -106.5 -221 t-272.5 -82q-55 0 -104 9.5t-90 27.5q-25 -14 -43.5 -35.5t-18.5 -52.5q0 -37 25.5 -57.5t83.5 -20.5h350q145 0 221 -68.5t76 -172.5q0 -166 -159 -238t-357 -72q-180 0 -311.5 59.5t-131.5 182.5zM178 -94q0 -84 79 -123t202 -39q154 0 253 41t99 137q0 61 -47 86t-125 25 h-289q-70 0 -121 -27.5t-51 -99.5zM274 612q0 -92 54.5 -142t148.5 -50t149.5 50t55.5 142q0 94 -55.5 145.5t-149.5 51.5t-148.5 -51t-54.5 -146z" />
<glyph unicode="h" horiz-adv-x="1015" d="M117 0v1290h170v-555q33 82 114.5 133.5t182.5 51.5q174 0 250.5 -104.5t76.5 -260.5v-555h-170v541q0 111 -54 177t-159 66q-100 0 -170.5 -73.5t-70.5 -196.5v-514h-170z" />
<glyph unicode="i" horiz-adv-x="401" d="M113 1098v192h176v-192h-176zM117 0v895h170v-895h-170z" />
<glyph unicode="j" horiz-adv-x="401" d="M-152 -303l41 108q35 -23 68 -34t72 -11q43 0 65.5 26t22.5 79v1030h170v-1018q0 -117 -60.5 -181.5t-179.5 -64.5q-57 0 -110.5 19.5t-88.5 46.5zM113 1098v192h176v-192h-176z" />
<glyph unicode="k" horiz-adv-x="980" d="M117 0v1290h170v-801l450 406h213l-411 -367l430 -528h-201l-356 434l-125 -110v-324h-170z" />
<glyph unicode="l" horiz-adv-x="401" d="M117 0v1290h170v-1290h-170z" />
<glyph unicode="m" horiz-adv-x="1587" d="M117 0v895h170v-160q33 82 107.5 133.5t176.5 51.5q119 0 191.5 -53.5t101.5 -141.5q35 82 115 138.5t186 56.5q174 0 245 -106.5t71 -258.5v-555h-170v541q0 111 -48.5 177t-150.5 66q-94 0 -161.5 -73.5t-67.5 -196.5v-514h-170v541q0 111 -48.5 177t-150.5 66 q-94 0 -160.5 -73.5t-66.5 -196.5v-514h-170z" />
<glyph unicode="n" horiz-adv-x="1015" d="M117 0v895h170v-160q33 82 114.5 133.5t182.5 51.5q174 0 250.5 -104.5t76.5 -260.5v-555h-170v541q0 111 -54 177t-159 66q-100 0 -170.5 -73.5t-70.5 -196.5v-514h-170z" />
<glyph unicode="o" horiz-adv-x="1032" d="M59 446q0 207 129 340.5t326 133.5t328 -133.5t131 -340.5t-131 -339t-328 -132t-326 132.5t-129 338.5zM233 446q0 -147 73 -243.5t208 -96.5t210 96.5t75 243.5q0 150 -75 245t-210 95t-208 -95t-73 -245z" />
<glyph unicode="p" horiz-adv-x="1077" d="M117 -344v1239h170v-188q29 82 112.5 147.5t208.5 65.5q197 0 303.5 -138.5t106.5 -335.5t-106.5 -334t-303.5 -137q-125 0 -208.5 64.5t-112.5 146.5v-530h-170zM283 422q0 -147 83 -229t203 -82q131 0 202 91t71 244q0 154 -71 245t-202 91q-121 0 -203.5 -82 t-82.5 -227v-51z" />
<glyph unicode="q" horiz-adv-x="1075" d="M59 446q0 197 105.5 335.5t304.5 138.5q125 0 208 -66t114 -147v188h170v-1239h-170v530q-31 -82 -114 -146.5t-208 -64.5q-199 0 -304.5 137.5t-105.5 333.5zM233 446q0 -154 72 -244.5t203 -90.5q121 0 203 82t82 229v51q0 145 -82 227t-203 82q-131 0 -203 -91 t-72 -245z" />
<glyph unicode="r" horiz-adv-x="677" d="M117 0v895h170v-182q25 76 91 141.5t163 65.5q41 0 72.5 -10.5t54.5 -30.5l-17 -154q-37 20 -67.5 28.5t-71.5 8.5q-96 0 -160.5 -80t-64.5 -209v-473h-170z" />
<glyph unicode="s" horiz-adv-x="886" d="M51 301l144 10q12 -102 81.5 -156.5t184.5 -54.5q88 0 147.5 33t59.5 100q0 63 -44 91t-126 43l-152 26q-125 20 -196.5 78.5t-71.5 173.5q0 123 95 199t249 76q178 0 279.5 -82t113.5 -236l-137 -8q-14 102 -78.5 151.5t-177.5 49.5q-84 0 -135 -36t-51 -97 q0 -53 33.5 -83t103.5 -42l168 -27q135 -23 210.5 -81t75.5 -179q0 -133 -105.5 -204t-260.5 -71q-166 0 -282 80t-128 246z" />
<glyph unicode="t" horiz-adv-x="626" d="M12 772v92l58 10q63 12 85.5 46t37.5 98l26 125h96v-248h252v-123h-252v-543q0 -59 27 -87.5t84 -28.5q43 0 86 16t82 37v-115q-49 -37 -102.5 -56.5t-126.5 -19.5q-94 0 -156 52.5t-62 181.5v563h-135z" />
<glyph unicode="u" horiz-adv-x="1005" d="M106 338v557h170v-541q0 -111 51.5 -178t155.5 -67q100 0 168 74.5t68 197.5v514h170v-895h-170v158q-33 -80 -113 -131.5t-180 -51.5q-174 0 -247 103.5t-73 259.5z" />
<glyph unicode="v" horiz-adv-x="931" d="M14 895h179l278 -688h8l273 688h166l-369 -895h-166z" />
<glyph unicode="w" horiz-adv-x="1314" d="M14 895h170l211 -678h8l189 678h143l193 -678h8l207 678h157l-284 -895h-164l-190 668h-9l-188 -668h-164z" />
<glyph unicode="x" horiz-adv-x="956" d="M14 0l367 461l-338 434h197l239 -309l236 309h182l-330 -426l373 -469h-197l-274 348l-270 -348h-185z" />
<glyph unicode="y" horiz-adv-x="942" d="M14 895h179l284 -688h8l275 688h168l-516 -1239h-166l145 346z" />
<glyph unicode="z" horiz-adv-x="876" d="M61 0v117l527 647h-510v131h727v-117l-537 -647h549v-131h-756z" />
<glyph unicode="{" horiz-adv-x="600" d="M55 524v131h51q63 0 80 33t17 117v340q0 100 44 153.5t142 53.5h121v-129h-82q-35 0 -49 -20.5t-14 -55.5v-348q0 -86 -31 -140.5t-113 -68.5q82 -14 113 -68.5t31 -142.5v-346q0 -35 14 -55.5t49 -20.5h82v-129h-121q-98 0 -142 53t-44 154v340q0 84 -16.5 116.5 t-80.5 32.5h-51z" />
<glyph unicode="|" horiz-adv-x="403" d="M125 -170v1520h154v-1520h-154z" />
<glyph unicode="}" horiz-adv-x="600" d="M88 -43h82q37 0 50 20.5t13 55.5v346q0 88 32 142t114 69q-82 14 -114 68.5t-32 140.5v348q0 35 -13 55.5t-50 20.5h-82v129h123q98 0 142 -53.5t44 -153.5v-340q0 -84 16.5 -117t80.5 -33h51v-131h-51q-63 0 -80 -32.5t-17 -116.5v-340q0 -100 -44 -153.5t-142 -53.5 h-123v129z" />
<glyph unicode="~" horiz-adv-x="802" d="M96 424q0 113 43 182.5t131 69.5q82 0 138.5 -60.5t115.5 -60.5q43 0 59.5 29.5t18.5 85.5h107q0 -113 -43 -182.5t-131 -69.5q-84 0 -140.5 60.5t-115.5 60.5q-43 0 -59.5 -30t-18.5 -85h-105z" />
<glyph unicode="&#xa1;" horiz-adv-x="391" d="M94 856v205h205v-205h-205zM104 131l52 592h82l49 -592v-360h-183v360z" />
<glyph unicode="&#xa2;" horiz-adv-x="1024" d="M59 446q0 197 118 325t296 147v192h115v-192q174 -18 270 -130t107 -260l-146 -10q-10 104 -70.5 176t-160.5 88v-669q100 14 160.5 83.5t74.5 182.5l142 -12q-10 -150 -106.5 -260.5t-270.5 -129.5v-178h-115v178q-178 18 -296 145.5t-118 323.5zM227 446 q0 -139 67.5 -227t178.5 -106v669q-111 -18 -178.5 -106.5t-67.5 -229.5z" />
<glyph unicode="&#xa3;" horiz-adv-x="1157" d="M25 178q0 88 62.5 146.5t162.5 58.5q39 0 72.5 -10.5t66.5 -24.5q-2 70 -19.5 128.5t-41.5 111.5h-209v117h155q-20 47 -33.5 100t-13.5 117q0 174 106.5 283.5t295.5 109.5q197 0 309.5 -114t112.5 -314l-156 -8q-2 145 -69.5 220t-190.5 75t-178.5 -74t-55.5 -180 q0 -57 13.5 -110.5t31.5 -104.5h318v-117h-275q20 -53 34 -110.5t14 -121.5q0 -27 -2.5 -51t-6.5 -47q66 -49 134.5 -91t156.5 -42q90 0 127 63.5t37 171.5l139 -6q4 -178 -72.5 -278.5t-215.5 -100.5q-111 0 -195 48.5t-150 105.5q-35 -70 -96 -112t-149 -42 q-90 0 -154.5 52.5t-64.5 150.5zM147 178q0 -43 29 -67.5t70 -24.5q55 0 87 36t46 97q-33 25 -64.5 39t-64.5 14q-47 0 -75 -24.5t-28 -69.5z" />
<glyph unicode="&#xa5;" horiz-adv-x="1177" d="M16 1290h195l387 -598l375 598h188l-407 -622h270v-121h-350v-146h350v-120h-350v-281h-170v281h-350v120h350v146h-350v121h270z" />
<glyph unicode="&#xa7;" horiz-adv-x="913" d="M39 629q0 72 42 133t105 94q-35 33 -56 79t-21 109q0 113 95 192t251 79t263 -82t120 -236l-136 -8q-14 104 -87.5 153.5t-161.5 49.5q-80 0 -134.5 -35t-54.5 -106q0 -45 20.5 -78t84.5 -60l262 -118q111 -49 176 -119t65 -187q0 -72 -42 -132t-105 -95q35 -33 56.5 -78 t21.5 -108q0 -115 -95 -194t-251 -79t-263.5 82t-119.5 236l135 8q14 -104 88 -153.5t162 -49.5q78 0 133 35t55 109q0 45 -20.5 76.5t-83.5 60.5l-262 117q-111 49 -176.5 118.5t-65.5 186.5zM190 637q0 -66 41 -103.5t113 -70.5l252 -119l1 -1t7 -3q51 18 84 52t33 91 q0 63 -41 101.5t-113 70.5l-252 121l-1 1q-1 1 -7 3q-51 -18 -84 -52t-33 -91z" />
<glyph unicode="&#xa8;" horiz-adv-x="1024" d="M287 1081v193h168v-193h-168zM569 1081v193h166v-193h-166z" />
<glyph unicode="&#xa9;" horiz-adv-x="1482" d="M72 645q0 291 197.5 480.5t471.5 189.5t472 -189.5t198 -480.5t-197.5 -480.5t-472.5 -189.5q-274 0 -471.5 189.5t-197.5 480.5zM168 645q0 -250 169 -412.5t404 -162.5q236 0 405 162.5t169 412.5t-169 413t-405 163t-404.5 -163t-168.5 -413zM354 643q0 180 112 294 t275 114q172 0 266.5 -96.5t104.5 -245.5l-131 -7q-6 96 -65.5 161t-167.5 65q-111 0 -177.5 -77t-66.5 -208q0 -129 66.5 -205t177.5 -76q109 0 168 65t65 159l131 -8q-10 -150 -104.5 -246t-266.5 -96q-164 0 -275.5 114.5t-111.5 292.5z" />
<glyph unicode="&#xaa;" horiz-adv-x="796" d="M57 778q0 98 75 145.5t198 69.5l188 37v29q0 63 -36 101t-103 38q-70 0 -108 -36t-52 -93l-139 16q18 100 96 166t207 66q131 0 208 -65.5t77 -200.5v-297q0 -27 14 -40.5t37 -13.5q14 0 30.5 4.5t30.5 10.5v-82q-20 -18 -46.5 -30.5t-69.5 -12.5q-57 0 -95.5 38 t-46.5 101q-29 -61 -94.5 -102t-151.5 -41q-100 0 -159.5 51t-59.5 141zM209 793q0 -41 27.5 -70t82.5 -29q84 0 141.5 59.5t57.5 155.5v33l-145 -31q-76 -16 -120 -39.5t-44 -78.5z" />
<glyph unicode="&#xab;" horiz-adv-x="831" d="M94 379v135l307 264v-166l-190 -166l190 -163v-168zM430 379v135l307 264v-166l-190 -166l190 -163v-168z" />
<glyph unicode="&#xad;" horiz-adv-x="704" d="M117 446v152h471v-152h-471z" />
<glyph unicode="&#xae;" horiz-adv-x="825" d="M49 948q0 160 107.5 263.5t255.5 103.5q150 0 257 -103.5t107 -263.5q0 -158 -107.5 -261t-256.5 -103q-147 0 -255 103.5t-108 260.5zM115 948q0 -131 87 -217t210 -86t210 86t87 217q0 133 -87 219t-210 86t-210 -86t-87 -219zM260 762v381h178q72 0 109 -32t37 -85 q0 -41 -24.5 -67.5t-61.5 -28.5q33 -6 51 -25.5t20 -52.5q2 -43 6.5 -61.5t14.5 -28.5h-88q-6 8 -10.5 26.5t-6.5 49.5q-2 33 -16 46t-47 13h-78v-135h-84zM344 963h78q39 0 57.5 14t18.5 43q0 27 -18.5 42t-57.5 15h-78v-114z" />
<glyph unicode="&#xaf;" horiz-adv-x="1024" d="M248 1055v131h526v-131h-526z" />
<glyph unicode="&#xb0;" horiz-adv-x="694" d="M61 1036q0 117 83 198t202 81q121 0 204 -81t83 -198t-83 -198.5t-204 -81.5q-119 0 -202 81.5t-83 198.5zM186 1036q0 -70 44 -118t116 -48q74 0 118 48.5t44 117.5q0 68 -44 116t-118 48q-72 0 -116 -48t-44 -116z" />
<glyph unicode="&#xb1;" horiz-adv-x="1265" d="M109 80v143h1048v-143h-1048zM109 717v141h452v383h141v-383h455v-141h-455v-383h-141v383h-452z" />
<glyph unicode="&#xb2;" horiz-adv-x="679" d="M49 492v94l221 186q94 78 147.5 138.5t53.5 136.5q0 59 -32.5 97t-100.5 38q-70 0 -106.5 -43t-36.5 -119q0 -20 3 -36.5t5 -33.5l-144 6q-2 18 -5 37t-3 37q0 123 80 198t209 75q141 0 211 -72t70 -176t-68 -183t-156 -151l-131 -107h377v-122h-594z" />
<glyph unicode="&#xb3;" horiz-adv-x="694" d="M45 762l143 -4q2 -82 49.5 -123t122.5 -41q63 0 105.5 32t42.5 89q0 59 -44 91t-108 32q-20 0 -37.5 -1t-31.5 -3v110q12 -2 29.5 -2h39.5q53 0 95.5 26.5t42.5 92.5q0 57 -36 91t-106 34q-72 0 -112.5 -47t-40.5 -129l-140 4q0 123 79 206t218 83q135 0 208 -63.5 t73 -166.5q0 -74 -46 -123t-104 -57q76 -10 122 -61.5t46 -126.5q0 -104 -80.5 -166t-214.5 -62q-147 0 -231 77t-84 208z" />
<glyph unicode="&#xb4;" horiz-adv-x="1024" d="M352 1032l111 258h207l-199 -258h-119z" />
<glyph unicode="&#xb6;" horiz-adv-x="1028" d="M41 926q0 168 119 266t338 98h403v-1290h-133v1159h-137v-1159h-133v561q-219 0 -338 98.5t-119 266.5z" />
<glyph unicode="&#xb7;" horiz-adv-x="374" d="M84 420v205h205v-205h-205z" />
<glyph unicode="&#xb8;" horiz-adv-x="1173" d="M358 -281l35 66q33 -25 81 -45.5t104 -20.5q45 0 73.5 14.5t28.5 47.5q0 59 -61.5 62t-112.5 -19l-41 22l121 177h80l-86 -115q86 23 159.5 -5t73.5 -112q0 -82 -70.5 -115.5t-158.5 -33.5q-74 0 -133.5 25.5t-92.5 51.5z" />
<glyph unicode="&#xb9;" horiz-adv-x="409" d="M16 1075v94q84 0 126 30t65 93h104v-800h-145v583h-150z" />
<glyph unicode="&#xba;" horiz-adv-x="815" d="M49 950q0 162 102.5 264.5t256.5 102.5t257 -102.5t103 -264.5q0 -160 -103.5 -262t-256.5 -102q-154 0 -256.5 102.5t-102.5 261.5zM207 950q0 -109 51 -177t150 -68q98 0 150 68.5t52 176.5q0 109 -52 178.5t-150 69.5t-149.5 -69.5t-51.5 -178.5z" />
<glyph unicode="&#xbb;" horiz-adv-x="831" d="M94 115v168l191 163l-191 166v166l307 -264v-135zM430 115v168l191 163l-191 166v166l307 -264v-135z" />
<glyph unicode="&#xbc;" horiz-adv-x="1452" d="M55 1079v95q82 0 125 28.5t64 91.5h104v-798h-143v583h-150zM172 0l832 1290h139l-832 -1290h-139zM721 197v131l375 467h176v-482h123v-116h-123v-197h-144v197h-407zM846 313h282v355z" />
<glyph unicode="&#xbd;" horiz-adv-x="1517" d="M55 1079v95q82 0 125 28.5t64 91.5h104v-798h-143v583h-150zM172 0l832 1290h139l-832 -1290h-139zM860 0v94l223 187q94 78 146.5 138t52.5 136q0 59 -31.5 97t-101.5 38t-106.5 -44t-36.5 -118q0 -20 3 -36.5t7 -34.5l-144 8q-2 18 -6 36.5t-4 37.5q0 123 81 197.5 t210 74.5q141 0 211 -71.5t70 -176.5q0 -104 -68 -183t-156 -151l-133 -106h379v-123h-596z" />
<glyph unicode="&#xbe;" horiz-adv-x="1671" d="M53 764l144 -4q2 -82 49 -123t123 -41q63 0 105 32t42 89q0 59 -44 90t-107 31h-38t-32 -2v110q10 -2 28.5 -2h41.5q53 0 95 26.5t42 90.5q0 57 -36 92t-106 35q-72 0 -112.5 -47t-40.5 -129l-141 4q0 123 79.5 206t219.5 83q133 0 206.5 -63.5t73.5 -166.5 q0 -76 -46 -124t-103 -56q76 -10 122 -61.5t46 -126.5q0 -104 -81 -166t-214 -62q-147 0 -231.5 77t-84.5 208zM389 0l834 1290h139l-832 -1290h-141zM940 197v131l375 467h176v-482h123v-116h-123v-197h-143v197h-408zM1065 313h283v355z" />
<glyph unicode="&#xbf;" horiz-adv-x="999" d="M57 129q0 133 81 224t190 179q57 45 80.5 85.5t25.5 99.5h160q0 -88 -34 -152.5t-116 -130.5q-72 -57 -137 -122.5t-65 -178.5q0 -100 62.5 -171t187.5 -71q133 0 204.5 80t71.5 222q0 29 -3 58.5t-11 57.5l176 -8q6 -31 9 -61.5t3 -59.5q0 -197 -123 -315.5t-327 -118.5 q-225 0 -330 114.5t-105 268.5zM418 856v205h205v-205h-205z" />
<glyph unicode="&#xc0;" horiz-adv-x="1306" d="M25 0l526 1290h194l537 -1290h-188l-156 379h-588l-151 -379h-174zM397 1642h207l111 -258h-119zM408 520h473l-236 574h-8z" />
<glyph unicode="&#xc1;" horiz-adv-x="1306" d="M25 0l526 1290h194l537 -1290h-188l-156 379h-588l-151 -379h-174zM408 520h473l-236 574h-8zM577 1384l111 258h207l-199 -258h-119z" />
<glyph unicode="&#xc2;" horiz-adv-x="1306" d="M25 0l526 1290h194l537 -1290h-188l-156 379h-588l-151 -379h-174zM375 1384l164 258h196l164 -258h-123l-139 152l-139 -152h-123zM408 520h473l-236 574h-8z" />
<glyph unicode="&#xc3;" horiz-adv-x="1306" d="M25 0l526 1290h194l537 -1290h-188l-156 379h-588l-151 -379h-174zM352 1382q0 111 43 178.5t127 67.5q82 0 137 -59.5t115 -59.5q43 0 58.5 30t17.5 83h102q0 -111 -42 -178.5t-128 -67.5q-82 0 -137 59.5t-115 59.5q-41 0 -57.5 -30t-18.5 -83h-102zM408 520h473 l-236 574h-8z" />
<glyph unicode="&#xc4;" horiz-adv-x="1306" d="M25 0l526 1290h194l537 -1290h-188l-156 379h-588l-151 -379h-174zM408 520h473l-236 574h-8zM414 1395v192h168v-192h-168zM696 1395v192h166v-192h-166z" />
<glyph unicode="&#xc5;" horiz-adv-x="1306" d="M25 0l526 1290h194l537 -1290h-188l-156 379h-588l-151 -379h-174zM408 520h473l-236 574h-8zM457 1524q0 72 49 122t131 50t131 -50.5t49 -121.5q0 -74 -49 -124t-131 -50t-131 50t-49 124zM549 1524q0 -39 22.5 -64.5t65.5 -25.5t65.5 25.5t22.5 64.5t-22.5 63.5 t-65.5 24.5t-65.5 -24.5t-22.5 -63.5z" />
<glyph unicode="&#xc6;" horiz-adv-x="2004" d="M25 0l880 1290h1004v-147h-729v-406h579v-145h-579v-445h747v-147h-919v389h-531l-264 -389h-188zM573 530h435v625h-9z" />
<glyph unicode="&#xc7;" horiz-adv-x="1363" d="M66 645q0 297 183 483.5t449 186.5q274 0 429 -155.5t173 -403.5l-172 -8q-10 178 -120.5 296.5t-309.5 118.5q-197 0 -323.5 -140t-126.5 -378t127 -378t323 -140q199 0 309.5 119t120.5 297l172 -8q-18 -248 -174 -404q-135 -137 -364 -154l-51 -69q86 23 159.5 -5 t73.5 -112q0 -82 -70.5 -115.5t-158.5 -33.5q-74 0 -133.5 25.5t-92.5 51.5l35 66q33 -25 81 -45.5t104 -20.5q45 0 73.5 14.5t28.5 47.5q0 59 -61.5 62t-112.5 -19l-41 22l88 129q-258 6 -436 187q-182 186 -182 483z" />
<glyph unicode="&#xc8;" horiz-adv-x="1122" d="M125 0v1290h901v-147h-729v-406h580v-145h-580v-445h747v-147h-919zM348 1642h207l111 -258h-119z" />
<glyph unicode="&#xc9;" horiz-adv-x="1122" d="M125 0v1290h901v-147h-729v-406h580v-145h-580v-445h747v-147h-919zM528 1384l111 258h207l-199 -258h-119z" />
<glyph unicode="&#xca;" horiz-adv-x="1122" d="M125 0v1290h901v-147h-729v-406h580v-145h-580v-445h747v-147h-919zM326 1384l164 258h196l164 -258h-123l-139 152l-139 -152h-123z" />
<glyph unicode="&#xcb;" horiz-adv-x="1122" d="M125 0v1290h901v-147h-729v-406h580v-145h-580v-445h747v-147h-919zM365 1395v192h168v-192h-168zM647 1395v192h166v-192h-166z" />
<glyph unicode="&#xcc;" horiz-adv-x="428" d="M-27 1642h207l111 -258h-119zM125 0v1290h178v-1290h-178z" />
<glyph unicode="&#xcd;" horiz-adv-x="428" d="M125 0v1290h178v-1290h-178zM153 1384l111 258h207l-199 -258h-119z" />
<glyph unicode="&#xce;" horiz-adv-x="428" d="M-49 1384l164 258h196l164 -258h-123l-139 152l-139 -152h-123zM125 0v1290h178v-1290h-178z" />
<glyph unicode="&#xcf;" horiz-adv-x="428" d="M-10 1395v192h168v-192h-168zM125 0v1290h178v-1290h-178zM272 1395v192h166v-192h-166z" />
<glyph unicode="&#xd0;" horiz-adv-x="1355" d="M16 592v145h146v553h467q303 0 482 -172t179 -473t-179 -473t-482 -172h-467v592h-146zM340 145h278q236 0 362 133.5t126 366.5t-126 366.5t-362 133.5h-278v-408h350v-145h-350v-447z" />
<glyph unicode="&#xd1;" horiz-adv-x="1306" d="M125 0v1290h184l707 -987v987h166v-1290h-142l-749 1036v-1036h-166zM371 1382q0 111 43 178.5t127 67.5q82 0 137 -59.5t115 -59.5q43 0 58.5 30t17.5 83h102q0 -111 -42 -178.5t-128 -67.5q-82 0 -137 59.5t-115 59.5q-41 0 -57.5 -30t-18.5 -83h-102z" />
<glyph unicode="&#xd2;" horiz-adv-x="1411" d="M66 645q0 297 180 483.5t461 186.5t461 -186.5t180 -483.5t-180.5 -483.5t-460.5 -186.5q-281 0 -461 186.5t-180 483.5zM248 645q0 -236 126 -377t333 -141t331.5 141t124.5 377t-125 377t-331 141q-207 0 -333 -141t-126 -377zM465 1642h207l111 -258h-119z" />
<glyph unicode="&#xd3;" horiz-adv-x="1411" d="M66 645q0 297 180 483.5t461 186.5t461 -186.5t180 -483.5t-180.5 -483.5t-460.5 -186.5q-281 0 -461 186.5t-180 483.5zM248 645q0 -236 126 -377t333 -141t331.5 141t124.5 377t-125 377t-331 141q-207 0 -333 -141t-126 -377zM645 1384l111 258h207l-199 -258h-119z " />
<glyph unicode="&#xd4;" horiz-adv-x="1411" d="M66 645q0 297 180 483.5t461 186.5t461 -186.5t180 -483.5t-180.5 -483.5t-460.5 -186.5q-281 0 -461 186.5t-180 483.5zM248 645q0 -236 126 -377t333 -141t331.5 141t124.5 377t-125 377t-331 141q-207 0 -333 -141t-126 -377zM445 1384l164 258h196l164 -258h-123 l-139 152l-139 -152h-123z" />
<glyph unicode="&#xd5;" horiz-adv-x="1411" d="M66 645q0 297 180 483.5t461 186.5t461 -186.5t180 -483.5t-180.5 -483.5t-460.5 -186.5q-281 0 -461 186.5t-180 483.5zM248 645q0 -236 126 -377t333 -141t331.5 141t124.5 377t-125 377t-331 141q-207 0 -333 -141t-126 -377zM406 1382q0 111 43 178.5t127 67.5 q82 0 137 -59.5t115 -59.5q43 0 58.5 30t17.5 83h102q0 -111 -42 -178.5t-128 -67.5q-82 0 -137 59.5t-115 59.5q-41 0 -57.5 -30t-18.5 -83h-102z" />
<glyph unicode="&#xd6;" horiz-adv-x="1411" d="M66 645q0 297 180 483.5t461 186.5t461 -186.5t180 -483.5t-180.5 -483.5t-460.5 -186.5q-281 0 -461 186.5t-180 483.5zM248 645q0 -236 126 -377t333 -141t331.5 141t124.5 377t-125 377t-331 141q-207 0 -333 -141t-126 -377zM482 1395v192h168v-192h-168zM764 1395 v192h166v-192h-166z" />
<glyph unicode="&#xd7;" horiz-adv-x="1083" d="M113 301l329 330l-329 332l100 100l326 -336l327 336l101 -100l-330 -332l330 -330l-101 -100l-327 334l-326 -334z" />
<glyph unicode="&#xd8;" horiz-adv-x="1411" d="M66 645q0 297 180 483.5t461 186.5q106 0 201.5 -30t172.5 -83l109 137l94 -71l-115 -142q84 -88 131.5 -210.5t47.5 -270.5q0 -297 -180 -483.5t-461 -186.5q-106 0 -200.5 29t-170.5 80l-123 -152l-94 72l127 158q-86 88 -133 212t-47 271zM248 645q0 -106 26.5 -195.5 t77.5 -154.5l627 782q-53 41 -122 63.5t-150 22.5q-207 0 -333 -141t-126 -377zM436 211q53 -41 122 -62.5t149 -21.5q207 0 331.5 141.5t124.5 376.5q0 104 -25.5 193.5t-74.5 154.5z" />
<glyph unicode="&#xd9;" horiz-adv-x="1261" d="M109 494v796h176v-798q0 -184 89 -275.5t257 -91.5t259 91t91 273v801h174v-796q0 -281 -153.5 -400t-370.5 -119t-369.5 119t-152.5 400zM391 1642h207l111 -258h-119z" />
<glyph unicode="&#xda;" horiz-adv-x="1261" d="M109 494v796h176v-798q0 -184 89 -275.5t257 -91.5t259 91t91 273v801h174v-796q0 -281 -153.5 -400t-370.5 -119t-369.5 119t-152.5 400zM571 1384l111 258h207l-199 -258h-119z" />
<glyph unicode="&#xdb;" horiz-adv-x="1261" d="M109 494v796h176v-798q0 -184 89 -275.5t257 -91.5t259 91t91 273v801h174v-796q0 -281 -153.5 -400t-370.5 -119t-369.5 119t-152.5 400zM369 1384l164 258h196l164 -258h-123l-139 152l-139 -152h-123z" />
<glyph unicode="&#xdc;" horiz-adv-x="1261" d="M109 494v796h176v-798q0 -184 89 -275.5t257 -91.5t259 91t91 273v801h174v-796q0 -281 -153.5 -400t-370.5 -119t-369.5 119t-152.5 400zM408 1395v192h168v-192h-168zM690 1395v192h166v-192h-166z" />
<glyph unicode="&#xdd;" horiz-adv-x="1224" d="M25 1290h194l404 -618l389 618h188l-502 -784v-506h-170v506zM553 1384l111 258h207l-199 -258h-119z" />
<glyph unicode="&#xde;" horiz-adv-x="1122" d="M125 0v1290h176v-219h277q238 0 369.5 -107.5t131.5 -295.5q0 -190 -132 -297t-369 -107h-277v-264h-176zM301 410h272q168 0 251 67.5t83 190.5t-83 190.5t-251 67.5h-272v-516z" />
<glyph unicode="&#xdf;" horiz-adv-x="995" d="M117 0v911q0 174 100 289t285 115q166 0 264 -86.5t98 -233.5q0 -117 -60.5 -185.5t-141.5 -86.5q127 -20 201.5 -113.5t74.5 -228.5q0 -190 -114.5 -289.5t-266.5 -99.5q-47 0 -77.5 8t-59.5 16v131q29 -8 58.5 -15t56.5 -7q100 0 169.5 65.5t69.5 198.5 q0 119 -73.5 189.5t-196.5 68.5h-43.5t-38.5 -2v137q18 -2 34.5 -3t43.5 -1q100 0 151 55.5t51 155.5q0 84 -50 141.5t-150 57.5q-106 0 -160.5 -75t-54.5 -210v-903h-170z" />
<glyph unicode="&#xe0;" d="M72 223q0 127 100 188.5t260 94.5l242 49v35q0 92 -51.5 145t-145.5 53q-96 0 -150.5 -51t-74.5 -129l-152 21q27 125 124.5 208t254.5 83q168 0 263.5 -86t95.5 -256v-402q0 -35 18 -52.5t51 -17.5q14 0 37 5.5t41 15.5v-92q-23 -23 -54.5 -38t-82.5 -15q-70 0 -115 48 t-53 128q-37 -78 -125 -130.5t-197 -52.5q-129 0 -207.5 67t-78.5 181zM242 233q0 -57 38.5 -95t114.5 -38q117 0 198 82t81 217v43l-201 -43q-104 -23 -167.5 -53.5t-63.5 -112.5zM248 1290h207l111 -258h-119z" />
<glyph unicode="&#xe1;" d="M72 223q0 127 100 188.5t260 94.5l242 49v35q0 92 -51.5 145t-145.5 53q-96 0 -150.5 -51t-74.5 -129l-152 21q27 125 124.5 208t254.5 83q168 0 263.5 -86t95.5 -256v-402q0 -35 18 -52.5t51 -17.5q14 0 37 5.5t41 15.5v-92q-23 -23 -54.5 -38t-82.5 -15q-70 0 -115 48 t-53 128q-37 -78 -125 -130.5t-197 -52.5q-129 0 -207.5 67t-78.5 181zM242 233q0 -57 38.5 -95t114.5 -38q117 0 198 82t81 217v43l-201 -43q-104 -23 -167.5 -53.5t-63.5 -112.5zM434 1032l111 258h207l-199 -258h-119z" />
<glyph unicode="&#xe2;" d="M72 223q0 127 100 188.5t260 94.5l242 49v35q0 92 -51.5 145t-145.5 53q-96 0 -150.5 -51t-74.5 -129l-152 21q27 125 124.5 208t254.5 83q168 0 263.5 -86t95.5 -256v-402q0 -35 18 -52.5t51 -17.5q14 0 37 5.5t41 15.5v-92q-23 -23 -54.5 -38t-82.5 -15q-70 0 -115 48 t-53 128q-37 -78 -125 -130.5t-197 -52.5q-129 0 -207.5 67t-78.5 181zM227 1032l164 258h196l164 -258h-123l-139 152l-139 -152h-123zM242 233q0 -57 38.5 -95t114.5 -38q117 0 198 82t81 217v43l-201 -43q-104 -23 -167.5 -53.5t-63.5 -112.5z" />
<glyph unicode="&#xe3;" d="M72 223q0 127 100 188.5t260 94.5l242 49v35q0 92 -51.5 145t-145.5 53q-96 0 -150.5 -51t-74.5 -129l-152 21q27 125 124.5 208t254.5 83q168 0 263.5 -86t95.5 -256v-402q0 -35 18 -52.5t51 -17.5q14 0 37 5.5t41 15.5v-92q-23 -23 -54.5 -38t-82.5 -15q-70 0 -115 48 t-53 128q-37 -78 -125 -130.5t-197 -52.5q-129 0 -207.5 67t-78.5 181zM197 1036q0 111 43 178.5t127 67.5q82 0 137 -59.5t115 -59.5q43 0 58.5 30t17.5 83h102q0 -111 -42 -178.5t-128 -67.5q-82 0 -137 59.5t-115 59.5q-41 0 -57.5 -30t-18.5 -83h-102zM242 233 q0 -57 38.5 -95t114.5 -38q117 0 198 82t81 217v43l-201 -43q-104 -23 -167.5 -53.5t-63.5 -112.5z" />
<glyph unicode="&#xe4;" d="M72 223q0 127 100 188.5t260 94.5l242 49v35q0 92 -51.5 145t-145.5 53q-96 0 -150.5 -51t-74.5 -129l-152 21q27 125 124.5 208t254.5 83q168 0 263.5 -86t95.5 -256v-402q0 -35 18 -52.5t51 -17.5q14 0 37 5.5t41 15.5v-92q-23 -23 -54.5 -38t-82.5 -15q-70 0 -115 48 t-53 128q-37 -78 -125 -130.5t-197 -52.5q-129 0 -207.5 67t-78.5 181zM242 233q0 -57 38.5 -95t114.5 -38q117 0 198 82t81 217v43l-201 -43q-104 -23 -167.5 -53.5t-63.5 -112.5zM267 1081v193h168v-193h-168zM549 1081v193h166v-193h-166z" />
<glyph unicode="&#xe5;" d="M72 223q0 127 100 188.5t260 94.5l242 49v35q0 92 -51.5 145t-145.5 53q-96 0 -150.5 -51t-74.5 -129l-152 21q27 125 124.5 208t254.5 83q168 0 263.5 -86t95.5 -256v-402q0 -35 18 -52.5t51 -17.5q14 0 37 5.5t41 15.5v-92q-23 -23 -54.5 -38t-82.5 -15q-70 0 -115 48 t-53 128q-37 -78 -125 -130.5t-197 -52.5q-129 0 -207.5 67t-78.5 181zM242 233q0 -57 38.5 -95t114.5 -38q117 0 198 82t81 217v43l-201 -43q-104 -23 -167.5 -53.5t-63.5 -112.5zM309 1171q0 72 49 122t131 50t131 -50t49 -122q0 -74 -49 -124t-131 -50t-131 50t-49 124z M401 1171q0 -39 22.5 -64.5t65.5 -25.5t65.5 26t22.5 64q0 39 -22.5 64t-65.5 25t-65.5 -25t-22.5 -64z" />
<glyph unicode="&#xe6;" horiz-adv-x="1587" d="M72 227q0 131 107.5 210t352.5 79h148v59q0 102 -54.5 157.5t-148.5 55.5q-96 0 -152.5 -51t-76.5 -127l-146 21q25 125 124.5 207t246.5 82q111 0 186.5 -41t112.5 -119q55 72 141 116t187 44q213 0 320.5 -132.5t107.5 -314.5v-67h-713q8 -141 95 -219t200 -78 q111 0 179.5 53t94.5 157l142 -16q-33 -154 -142.5 -241t-275.5 -87q-129 0 -223 55.5t-150 151.5q-39 -80 -129 -143.5t-225 -63.5q-147 0 -228 69t-81 183zM242 238q0 -57 38.5 -98.5t118.5 -41.5q109 0 195 72t86 207v29h-141q-172 0 -234.5 -43.5t-62.5 -124.5zM819 516 h537q-6 106 -68.5 190.5t-187.5 84.5q-109 0 -185.5 -76t-95.5 -199z" />
<glyph unicode="&#xe7;" horiz-adv-x="997" d="M59 446q0 213 128 343.5t331 130.5q197 0 302.5 -116t119.5 -276l-149 -10q-10 117 -81 190.5t-194 73.5q-125 0 -204 -91t-79 -245t79 -244.5t204 -90.5q123 0 193.5 76.5t81.5 193.5l149 -14q-14 -162 -121 -277q-96 -104 -268 -113l-51 -69q86 23 159.5 -5t73.5 -112 q0 -82 -70.5 -115.5t-158.5 -33.5q-74 0 -133.5 25.5t-91.5 51.5l34 66q33 -25 81 -45.5t104 -20.5q45 0 73.5 14.5t28.5 47.5q0 59 -61.5 62t-112.5 -19l-41 22l88 131q-172 12 -287 127q-127 129 -127 342z" />
<glyph unicode="&#xe8;" d="M59 434q0 211 130 348.5t323 137.5q213 0 321.5 -132.5t108.5 -314.5v-67h-713q6 -129 90 -213t203 -84q111 0 179.5 53t95.5 155l141 -16q-33 -152 -142.5 -239t-275.5 -87q-199 0 -330 126t-131 333zM233 516h535q-4 106 -66.5 190.5t-189.5 84.5q-121 0 -193 -82 t-86 -193zM274 1290h207l111 -258h-119z" />
<glyph unicode="&#xe9;" d="M59 434q0 211 130 348.5t323 137.5q213 0 321.5 -132.5t108.5 -314.5v-67h-713q6 -129 90 -213t203 -84q111 0 179.5 53t95.5 155l141 -16q-33 -152 -142.5 -239t-275.5 -87q-199 0 -330 126t-131 333zM233 516h535q-4 106 -66.5 190.5t-189.5 84.5q-121 0 -193 -82 t-86 -193zM446 1032l111 258h207l-199 -258h-119z" />
<glyph unicode="&#xea;" d="M59 434q0 211 130 348.5t323 137.5q213 0 321.5 -132.5t108.5 -314.5v-67h-713q6 -129 90 -213t203 -84q111 0 179.5 53t95.5 155l141 -16q-33 -152 -142.5 -239t-275.5 -87q-199 0 -330 126t-131 333zM233 516h535q-4 106 -66.5 190.5t-189.5 84.5q-121 0 -193 -82 t-86 -193zM252 1032l164 258h196l164 -258h-123l-139 152l-139 -152h-123z" />
<glyph unicode="&#xeb;" d="M59 434q0 211 130 348.5t323 137.5q213 0 321.5 -132.5t108.5 -314.5v-67h-713q6 -129 90 -213t203 -84q111 0 179.5 53t95.5 155l141 -16q-33 -152 -142.5 -239t-275.5 -87q-199 0 -330 126t-131 333zM233 516h535q-4 106 -66.5 190.5t-189.5 84.5q-121 0 -193 -82 t-86 -193zM291 1081v193h168v-193h-168zM573 1081v193h166v-193h-166z" />
<glyph unicode="&#xec;" horiz-adv-x="401" d="M-43 1290h207l111 -258h-119zM117 0v895h170v-895h-170z" />
<glyph unicode="&#xed;" horiz-adv-x="401" d="M117 0v895h170v-895h-170zM143 1032l111 258h207l-199 -258h-119z" />
<glyph unicode="&#xee;" horiz-adv-x="401" d="M-61 1032l164 258h196l164 -258h-123l-139 152l-139 -152h-123zM117 0v895h170v-895h-170z" />
<glyph unicode="&#xef;" horiz-adv-x="401" d="M-24 1081v193h168v-193h-168zM117 0v895h170v-895h-170zM258 1081v193h166v-193h-166z" />
<glyph unicode="&#xf0;" horiz-adv-x="1024" d="M57 434q0 207 130 331t315 124q86 0 159.5 -41t124.5 -115q-27 78 -88 158t-145 156l-260 -97l-41 90l213 80q-41 31 -85 59.5t-91 55.5l112 82q59 -33 113.5 -68t101.5 -73l164 61l45 -90l-125 -45q129 -127 198 -283.5t69 -347.5q0 -240 -128 -368t-325 -128t-327 126 t-130 333zM231 434q0 -143 75 -234t208 -91q135 0 210 91t75 234q0 145 -75 236.5t-210 91.5q-133 0 -208 -91t-75 -237z" />
<glyph unicode="&#xf1;" horiz-adv-x="1015" d="M117 0v895h170v-160q33 82 114.5 133.5t182.5 51.5q174 0 250.5 -104.5t76.5 -260.5v-555h-170v541q0 111 -54 177t-159 66q-100 0 -170.5 -73.5t-70.5 -196.5v-514h-170zM225 1036q0 111 43 178.5t127 67.5q82 0 137 -59.5t115 -59.5q43 0 58.5 30t17.5 83h102 q0 -111 -42 -178.5t-128 -67.5q-82 0 -137 59.5t-115 59.5q-41 0 -57.5 -30t-18.5 -83h-102z" />
<glyph unicode="&#xf2;" horiz-adv-x="1032" d="M59 446q0 207 129 340.5t326 133.5t328 -133.5t131 -340.5t-131 -339t-328 -132t-326 132.5t-129 338.5zM233 446q0 -147 73 -243.5t208 -96.5t210 96.5t75 243.5q0 150 -75 245t-210 95t-208 -95t-73 -245zM272 1290h207l111 -258h-119z" />
<glyph unicode="&#xf3;" horiz-adv-x="1032" d="M59 446q0 207 129 340.5t326 133.5t328 -133.5t131 -340.5t-131 -339t-328 -132t-326 132.5t-129 338.5zM233 446q0 -147 73 -243.5t208 -96.5t210 96.5t75 243.5q0 150 -75 245t-210 95t-208 -95t-73 -245zM458 1032l111 258h207l-199 -258h-119z" />
<glyph unicode="&#xf4;" horiz-adv-x="1032" d="M59 446q0 207 129 340.5t326 133.5t328 -133.5t131 -340.5t-131 -339t-328 -132t-326 132.5t-129 338.5zM233 446q0 -147 73 -243.5t208 -96.5t210 96.5t75 243.5q0 150 -75 245t-210 95t-208 -95t-73 -245zM252 1032l164 258h196l164 -258h-123l-139 152l-139 -152h-123 z" />
<glyph unicode="&#xf5;" horiz-adv-x="1032" d="M59 446q0 207 129 340.5t326 133.5t328 -133.5t131 -340.5t-131 -339t-328 -132t-326 132.5t-129 338.5zM225 1036q0 111 43 178.5t127 67.5q82 0 137 -59.5t115 -59.5q43 0 58.5 30t17.5 83h102q0 -111 -42 -178.5t-128 -67.5q-82 0 -137 59.5t-115 59.5 q-41 0 -57.5 -30t-18.5 -83h-102zM233 446q0 -147 73 -243.5t208 -96.5t210 96.5t75 243.5q0 150 -75 245t-210 95t-208 -95t-73 -245z" />
<glyph unicode="&#xf6;" horiz-adv-x="1032" d="M59 446q0 207 129 340.5t326 133.5t328 -133.5t131 -340.5t-131 -339t-328 -132t-326 132.5t-129 338.5zM233 446q0 -147 73 -243.5t208 -96.5t210 96.5t75 243.5q0 150 -75 245t-210 95t-208 -95t-73 -245zM291 1081v193h168v-193h-168zM573 1081v193h166v-193h-166z " />
<glyph unicode="&#xf7;" horiz-adv-x="1265" d="M111 567v144h1046v-144h-1046zM528 109v206h213v-206h-213zM528 961v208h213v-208h-213z" />
<glyph unicode="&#xf8;" horiz-adv-x="1032" d="M59 446q0 207 129 340.5t326 133.5q76 0 144.5 -20.5t123.5 -59.5l103 121l80 -64l-107 -127q53 -61 84 -143t31 -181q0 -207 -131 -339t-328 -132q-76 0 -142.5 20.5t-119.5 57.5l-102 -121l-80 66l104 123q-53 61 -84 144t-31 181zM229 446q0 -59 12.5 -111t34.5 -93 l414 487q-35 27 -80 42t-96 15q-135 0 -210 -95t-75 -245zM344 162q33 -27 76 -41.5t94 -14.5q137 0 213 96.5t76 243.5q0 59 -12.5 110.5t-34.5 92.5z" />
<glyph unicode="&#xf9;" horiz-adv-x="1005" d="M106 338v557h170v-541q0 -111 51.5 -178t155.5 -67q100 0 168 74.5t68 197.5v514h170v-895h-170v158q-33 -80 -113 -131.5t-180 -51.5q-174 0 -247 103.5t-73 259.5zM260 1290h207l111 -258h-119z" />
<glyph unicode="&#xfa;" horiz-adv-x="1005" d="M106 338v557h170v-541q0 -111 51.5 -178t155.5 -67q100 0 168 74.5t68 197.5v514h170v-895h-170v158q-33 -80 -113 -131.5t-180 -51.5q-174 0 -247 103.5t-73 259.5zM446 1032l111 258h207l-199 -258h-119z" />
<glyph unicode="&#xfb;" horiz-adv-x="1005" d="M106 338v557h170v-541q0 -111 51.5 -178t155.5 -67q100 0 168 74.5t68 197.5v514h170v-895h-170v158q-33 -80 -113 -131.5t-180 -51.5q-174 0 -247 103.5t-73 259.5zM242 1032l164 258h196l164 -258h-123l-139 152l-139 -152h-123z" />
<glyph unicode="&#xfc;" horiz-adv-x="1005" d="M106 338v557h170v-541q0 -111 51.5 -178t155.5 -67q100 0 168 74.5t68 197.5v514h170v-895h-170v158q-33 -80 -113 -131.5t-180 -51.5q-174 0 -247 103.5t-73 259.5zM279 1081v193h168v-193h-168zM561 1081v193h166v-193h-166z" />
<glyph unicode="&#xfd;" horiz-adv-x="942" d="M14 895h179l284 -688h8l275 688h168l-516 -1239h-166l145 346zM413 1032l111 258h207l-199 -258h-119z" />
<glyph unicode="&#xfe;" horiz-adv-x="1077" d="M117 -344v1634h170v-583q29 82 112.5 147.5t208.5 65.5q197 0 303.5 -138.5t106.5 -335.5t-106.5 -334t-303.5 -137q-125 0 -208.5 64.5t-112.5 146.5v-530h-170zM283 422q0 -147 83 -229t203 -82q131 0 202 91t71 244q0 154 -71 245t-202 91q-121 0 -203.5 -82 t-82.5 -227v-51z" />
<glyph unicode="&#xff;" horiz-adv-x="942" d="M14 895h179l284 -688h8l275 688h168l-516 -1239h-166l145 346zM246 1081v193h168v-193h-168zM528 1081v193h166v-193h-166z" />
<glyph unicode="&#x152;" horiz-adv-x="1947" d="M66 645q0 301 178 473t481 172h1126v-147h-729v-406h580v-145h-580v-445h748v-147h-1145q-303 0 -481 172t-178 473zM248 645q0 -233 126 -366.5t361 -133.5h215v1000h-215q-236 0 -361.5 -133t-125.5 -367z" />
<glyph unicode="&#x153;" horiz-adv-x="1728" d="M59 446q0 207 129 340.5t326 133.5q117 0 213 -51.5t156 -139.5q57 88 150 139.5t206 51.5q213 0 321.5 -132.5t108.5 -314.5v-63h-713q6 -133 90 -217t203 -84q111 0 179.5 53t95.5 157l141 -16q-33 -154 -142.5 -241t-275.5 -87q-121 0 -216 49.5t-154 135.5 q-59 -84 -151.5 -134.5t-211.5 -50.5q-197 0 -326 132.5t-129 338.5zM233 446q0 -147 73 -243.5t208 -96.5t210 96.5t75 243.5q0 150 -75 245t-210 95t-208 -95t-73 -245zM958 512h537q-2 109 -66.5 194t-189.5 85q-121 0 -194 -84t-87 -195z" />
<glyph unicode="&#x178;" horiz-adv-x="1224" d="M25 1290h194l404 -618l389 618h188l-502 -784v-506h-170v506zM389 1395v192h168v-192h-168zM671 1395v192h166v-192h-166z" />
<glyph unicode="&#x2c6;" horiz-adv-x="1024" d="M250 1032l164 258h196l164 -258h-123l-139 152l-139 -152h-123z" />
<glyph unicode="&#x2dc;" horiz-adv-x="1024" d="M211 1036q0 111 43 178.5t127 67.5q82 0 137 -59.5t115 -59.5q43 0 58.5 30t17.5 83h102q0 -111 -42 -178.5t-128 -67.5q-82 0 -137 59.5t-115 59.5q-41 0 -57.5 -30t-18.5 -83h-102z" />
<glyph unicode="&#x2000;" horiz-adv-x="848" />
<glyph unicode="&#x2001;" horiz-adv-x="1696" />
<glyph unicode="&#x2002;" horiz-adv-x="848" />
<glyph unicode="&#x2003;" horiz-adv-x="1696" />
<glyph unicode="&#x2004;" horiz-adv-x="565" />
<glyph unicode="&#x2005;" horiz-adv-x="424" />
<glyph unicode="&#x2006;" horiz-adv-x="282" />
<glyph unicode="&#x2007;" horiz-adv-x="282" />
<glyph unicode="&#x2008;" horiz-adv-x="212" />
<glyph unicode="&#x2009;" horiz-adv-x="339" />
<glyph unicode="&#x200a;" horiz-adv-x="94" />
<glyph unicode="&#x2010;" horiz-adv-x="704" d="M117 446v152h471v-152h-471z" />
<glyph unicode="&#x2011;" horiz-adv-x="704" d="M117 446v152h471v-152h-471z" />
<glyph unicode="&#x2012;" horiz-adv-x="704" d="M117 446v152h471v-152h-471z" />
<glyph unicode="&#x2013;" horiz-adv-x="1024" d="M117 459v125h790v-125h-790z" />
<glyph unicode="&#x2014;" horiz-adv-x="2048" d="M117 459v125h1814v-125h-1814z" />
<glyph unicode="&#x2018;" horiz-adv-x="358" d="M78 893v190q0 106 40 166t163 60v-99q-57 -4 -77 -29.5t-20 -93.5h97v-194h-203z" />
<glyph unicode="&#x2019;" horiz-adv-x="358" d="M78 872v101q57 4 76.5 29.5t19.5 93.5h-96v194h203v-192q0 -106 -40 -165t-163 -61z" />
<glyph unicode="&#x201a;" horiz-adv-x="358" d="M78 0v195h203v-193q0 -104 -40 -163.5t-163 -61.5v100q57 4 76.5 29.5t19.5 93.5h-96z" />
<glyph unicode="&#x201c;" horiz-adv-x="661" d="M78 893v190q0 106 40 166t163 60v-99q-57 -4 -77 -29.5t-20 -93.5h97v-194h-203zM381 893v190q0 106 40 166t163 60v-99q-57 -4 -77 -29.5t-20 -93.5h97v-194h-203z" />
<glyph unicode="&#x201d;" horiz-adv-x="661" d="M78 872v101q57 4 76.5 29.5t19.5 93.5h-96v194h203v-192q0 -106 -40 -165t-163 -61zM381 872v101q57 4 76.5 29.5t19.5 93.5h-96v194h203v-192q0 -106 -40 -165t-163 -61z" />
<glyph unicode="&#x201e;" horiz-adv-x="661" d="M78 0v195h203v-193q0 -104 -40 -163.5t-163 -61.5v100q57 4 76.5 29.5t19.5 93.5h-96zM381 0v195h203v-193q0 -104 -40 -163.5t-163 -61.5v100q57 4 76.5 29.5t19.5 93.5h-96z" />
<glyph unicode="&#x2022;" horiz-adv-x="684" d="M94 524q0 106 72 177t174 71q104 0 177 -71t73 -177q0 -109 -73 -178.5t-177 -69.5q-102 0 -174 70t-72 178z" />
<glyph unicode="&#x2026;" horiz-adv-x="1079" d="M78 0v205h205v-205h-205zM438 0v205h205v-205h-205zM797 0v205h204v-205h-204z" />
<glyph unicode="&#x202f;" horiz-adv-x="339" />
<glyph unicode="&#x2039;" horiz-adv-x="495" d="M94 379v135l307 264v-166l-190 -166l190 -163v-168z" />
<glyph unicode="&#x203a;" horiz-adv-x="495" d="M94 115v168l191 163l-191 166v166l307 -264v-135z" />
<glyph unicode="&#x205f;" horiz-adv-x="424" />
<glyph unicode="&#x20ac;" horiz-adv-x="1255" d="M31 459v110h123q-2 18 -2 37v39v35.5t2 34.5h-123v110h135q39 223 175 356.5t343 133.5q231 0 360.5 -153.5t143.5 -385.5l-166 -8q-10 166 -94 281.5t-244 115.5q-141 0 -227 -91t-115 -249h395l-20 -110h-387q-2 -16 -2 -33.5v-36.5v-38.5t2 -37.5h368l-20 -110h-334 q29 -154 114 -244t226 -90q160 0 243 109.5t95 287.5l166 -8q-14 -236 -144.5 -387.5t-359.5 -151.5q-205 0 -341 131.5t-175 352.5h-137z" />
<glyph unicode="&#x2122;" horiz-adv-x="1292" d="M41 1192v98h487v-98h-188v-434h-115v434h-184zM594 758v532h172l115 -391h4l114 391h166v-532h-112v420h-4l-127 -420h-91l-129 420h-4v-420h-104z" />
<glyph unicode="&#x25fc;" horiz-adv-x="890" d="M0 0v891h891v-891h-891z" />
</font>
</defs>
</svg>
